<svg xmlns="http://www.w3.org/2000/svg" viewBox="0 0 175.72 175.72"><defs><style>.cls-1{fill:#e2aa76;}.cls-2{fill:#fec23f;}.cls-3{fill:#39b28c;}.cls-4{fill:#d7a529;}.cls-5{fill:#f4f4f5;}.cls-6{fill:#fff;}</style></defs><g id="Layer_2" data-name="Layer 2"><g id="Layer_7" data-name="Layer 7"><circle class="cls-1" cx="87.86" cy="87.86" r="87.86"/><circle class="cls-2" cx="87.65" cy="87.86" r="65.55"/><path class="cls-3" d="M72.18,40.1c.26-.45-.33-.3-.33-.3a11.91,11.91,0,0,0-4.27,3.09.83.83,0,0,1-1.25.06l-3.44-3.63-.17.11-.06-.06-.13.17,3.26,3.79a.83.83,0,0,1-.19,1.24,11.75,11.75,0,0,0-3.51,3.93s-.21.58.27.36l.47-.21s-.79,1-.7,1.31l.25,0a2.14,2.14,0,0,0,0,1.13s.6.06.77-.08,1.4-1.51,1.4-1.51a12.19,12.19,0,0,0-.75,3.06l.22-.11s-.24.16.17.85a1.42,1.42,0,0,0,.61-.65c.15-.4-.2.61.26,1.6,0,0,.32-.21.31-.34a1.75,1.75,0,0,0,.77,1s.25,0,.37-.52l.1.19a2.63,2.63,0,0,0,.31-.95.92.92,0,0,0,.45.3s.38-.36-.09-2c0,0,.35.59.82.63a1.84,1.84,0,0,0,0-1.3l.25.07s.09-.1-.2-1.22-1-4.6-1-4.6,1.37,3.63,1.35,5a9.12,9.12,0,0,1,.11,1.4s.08,1,.41,1.15l.38-.6.11-.13s0,1.16.42,1.41l.17-.24a1,1,0,0,0,.66.54s.42-.64.39-.86a7.19,7.19,0,0,0-.28-1.37,3,3,0,0,1-.12-1,.61.61,0,0,1,.24.31c0,.19.6,2.32,2,2.63,0,0,.35-.29.09-1.1a2.22,2.22,0,0,0,1.22,1l.08-.48a1.33,1.33,0,0,0,1.05.22l.06.07a1.39,1.39,0,0,0-.11-1.09l.48,0a2.18,2.18,0,0,0-.92-1.32c.79.34,1.11,0,1.11,0-.17-1.43-2.23-2.19-2.42-2.26a.6.6,0,0,1-.28-.27,3.05,3.05,0,0,1,1,.23,7.15,7.15,0,0,0,1.32.41c.22.06.91-.3.91-.3a1,1,0,0,0-.48-.71l.26-.15c-.2-.44-1.36-.56-1.36-.56l.14-.09.64-.32c-.12-.34-1.1-.52-1.1-.52a8.72,8.72,0,0,1-1.39-.26c-1.38-.12-4.85-1.85-4.85-1.85s3.41,1.07,4.48,1.48,1.19.32,1.19.32L74,46a1.82,1.82,0,0,0,1.3.15c0-.47-.55-.87-.55-.87,1.59.63,2,.29,2,.29a1,1,0,0,0-.26-.49,2.6,2.6,0,0,0,1-.2l-.18-.12c.53-.07.55-.32.55-.32a1.76,1.76,0,0,0-.91-.87c.13,0,.37-.27.37-.27-.94-.55-2-.31-1.56-.42a1.4,1.4,0,0,0,.7-.54c-.64-.48-.83-.25-.83-.25l.14-.21a11.92,11.92,0,0,0-3.12.43s1.48-1.08,1.64-1.24.16-.76.16-.76a2.1,2.1,0,0,0-1.13-.09V40c-.28-.12-1.38.56-1.38.56Z"/><path class="cls-3" d="M121.86,58.75c.43.39.41-.29.41-.29a13.21,13.21,0,0,0-2.34-5.34.92.92,0,0,1,.22-1.37l4.73-2.87-.07-.22.07,0-.15-.18-4.87,2.64a.92.92,0,0,1-1.29-.5,13.11,13.11,0,0,0-3.43-4.72s-.57-.36-.45.2l.12.56s-.93-1.09-1.26-1.06l-.1.26a2.34,2.34,0,0,0-1.21-.29s-.21.63-.1.85,1.3,1.88,1.3,1.88a13.58,13.58,0,0,0-3.13-1.54l.07.27s-.12-.3-1,0a1.63,1.63,0,0,0,.56.82c.39.25-.62-.36-1.79-.1,0,0,.14.39.29.41a2,2,0,0,0-1.26.6s-.06.27.47.52l-.22.07a2.66,2.66,0,0,0,1,.55,1.22,1.22,0,0,0-.45.43s.31.49,2.2.37c0,0-.73.24-.88.73a2,2,0,0,0,1.42.29l-.14.25s.09.13,1.36.07,5.23,0,5.23,0-4.26.63-5.75.28a8.74,8.74,0,0,1-1.54-.21s-1.1-.14-1.34.18l.56.55.12.15s-1.26-.27-1.63.12l.22.25a1.14,1.14,0,0,0-.74.58s.6.61.85.63a10.49,10.49,0,0,0,1.54,0,3.31,3.31,0,0,1,1.14.1.61.61,0,0,1-.39.19c-.22,0-2.65.1-3.31,1.55,0,0,.22.45,1.17.36a2.46,2.46,0,0,0-1.43,1.07l.5.19a1.51,1.51,0,0,0-.48,1.09l-.09,0a1.49,1.49,0,0,0,1.2.13l-.09.53a2.45,2.45,0,0,0,1.65-.69c-.55.78-.28,1.19-.28,1.19,1.58.17,2.89-1.89,3-2.07a.66.66,0,0,1,.36-.25,3.4,3.4,0,0,1-.49,1,8.39,8.39,0,0,0-.76,1.34,2.77,2.77,0,0,0,.11,1,1.15,1.15,0,0,0,.88-.35l.1.32c.53-.12.93-1.35.93-1.35l.07.18.19.76c.4-.05.83-1.07.83-1.07a10.17,10.17,0,0,1,.6-1.44c.45-1.46,3.14-4.81,3.14-4.81s-2,3.43-2.65,4.5-.63,1.21-.63,1.21H115a2,2,0,0,0-.46,1.37c.5.12,1.07-.39,1.07-.39-1.06,1.57-.79,2.08-.79,2.08a1.08,1.08,0,0,0,.59-.17,3,3,0,0,0,0,1.11l.18-.16c-.06.59.21.67.21.67a1.93,1.93,0,0,0,1.16-.79c-.06.14.2.47.2.47.82-.88.8-2.07.82-1.59a1.62,1.62,0,0,0,.42.89c.68-.59.47-.84.47-.84l.2.2a13.3,13.3,0,0,0,.26-3.48s.82,1.85,1,2.06.78.35.78.35a2.39,2.39,0,0,0,.37-1.19l.27,0c.19-.27-.28-1.62-.28-1.62Z"/><path class="cls-3" d="M100.21,91c-.49-.19-.25.38-.25.38a11.75,11.75,0,0,0,3.72,3.73.84.84,0,0,1,.26,1.23l-3.06,4,.14.16,0,.06.18.1,3.24-3.81a.85.85,0,0,1,1.26,0,11.77,11.77,0,0,0,4.42,2.86s.6.11.32-.32l-.28-.43s1.13.61,1.4.48V99.1a2.15,2.15,0,0,0,1.12-.15s0-.6-.2-.75S110.72,97,110.72,97a12,12,0,0,0,3.14.27l-.15-.2s.2.22.82-.3a1.45,1.45,0,0,0-.73-.5c-.42-.08.63.1,1.53-.5,0,0-.25-.29-.38-.25a1.77,1.77,0,0,0,.87-.92s0-.25-.57-.28l.17-.14a2.54,2.54,0,0,0-1-.15,1.06,1.06,0,0,0,.24-.5s-.42-.32-2,.4c0,0,.54-.43.51-.9a1.81,1.81,0,0,0-1.29.22l0-.26s-.11-.08-1.17.39-4.39,1.72-4.39,1.72,3.37-1.92,4.74-2.11a8.85,8.85,0,0,1,1.37-.33s1-.23,1.07-.58l-.65-.29-.15-.08s1.15-.18,1.34-.64l-.27-.13a1,1,0,0,0,.44-.73s-.71-.32-.92-.25a7.59,7.59,0,0,0-1.31.48,3,3,0,0,1-1,.28.56.56,0,0,1,.27-.28c.18-.08,2.2-1,2.29-2.39,0,0-.34-.3-1.11.08a2.19,2.19,0,0,0,.86-1.37h-.49a1.35,1.35,0,0,0,.06-1.07l0-.07a1.35,1.35,0,0,0-1,.28l-.1-.48a2.22,2.22,0,0,0-1.16,1.12c.21-.83-.15-1.09-.15-1.09-1.39.38-1.82,2.53-1.86,2.73a.61.61,0,0,1-.23.32,3.28,3.28,0,0,1,.07-1,7.78,7.78,0,0,0,.21-1.37c0-.23-.44-.85-.44-.85a1,1,0,0,0-.63.58l-.18-.24c-.41.28-.35,1.44-.35,1.44l-.11-.13-.41-.58c-.33.18-.35,1.17-.35,1.17a9,9,0,0,1,0,1.41c.1,1.38-1.08,5.08-1.08,5.08s.53-3.53.77-4.66.14-1.22.14-1.22l-.24.08a1.81,1.81,0,0,0-.06-1.3c-.46.07-.78.68-.78.68.38-1.67,0-2,0-2a1,1,0,0,0-.45.33,2.44,2.44,0,0,0-.35-.93l-.09.19c-.15-.52-.4-.5-.4-.5a1.76,1.76,0,0,0-.72,1c0-.14-.32-.32-.32-.32-.4,1,0,2-.17,1.61a1.43,1.43,0,0,0-.65-.62c-.37.71-.12.86-.12.86l-.23-.1a12,12,0,0,0,.92,3s-1.3-1.3-1.49-1.43-.77,0-.77,0a2.14,2.14,0,0,0,.08,1.12l-.24.06c-.08.28.76,1.27.76,1.27Z"/><path class="cls-3" d="M149.73,96l-4,4.76a1.05,1.05,0,0,1-1.57,0,14.85,14.85,0,0,0-5.53-3.57s-.76-.15-.4.4l.35.54s-1.42-.77-1.75-.61v.32a2.66,2.66,0,0,0-1.4.18s0,.76.25.94,2.13,1.45,2.13,1.45a14.92,14.92,0,0,0-3.92-.34l.18.25s-.25-.27-1,.38a1.81,1.81,0,0,0,.92.62c.52.11-.79-.12-1.92.63,0,0,.31.36.48.31a2.26,2.26,0,0,0-1.09,1.15s.05.32.71.36l-.21.16a3.32,3.32,0,0,0,1.24.19,1.33,1.33,0,0,0-.3.63s.53.39,2.47-.5c0,0-.67.54-.63,1.12a2.29,2.29,0,0,0,1.61-.27l0,.32s.14.1,1.46-.48,5.49-2.15,5.49-2.15-4.22,2.4-5.93,2.64a10.53,10.53,0,0,1-1.71.4s-1.21.3-1.34.73l.82.36.18.1s-1.44.23-1.67.8l.34.17a1.28,1.28,0,0,0-.54.91s.87.4,1.14.32a10.32,10.32,0,0,0,1.63-.61,3.82,3.82,0,0,1,1.26-.35.75.75,0,0,1-.34.35c-.23.11-2.76,1.19-2.86,3,0,0,.42.37,1.38-.11a2.79,2.79,0,0,0-1.07,1.71h.61a1.68,1.68,0,0,0-.06,1.36L150,96.14Z"/><path class="cls-4" d="M141.26,88.36a15.63,15.63,0,0,0-.58-18.15,3.88,3.88,0,0,0-6.3.26L122.1,88.93a3.88,3.88,0,0,0,2.2,5.91A15.62,15.62,0,0,0,141.26,88.36Z"/><path class="cls-4" d="M124.12,132.82a15.64,15.64,0,0,0-.58-18.16,3.89,3.89,0,0,0-6.3.26L105,133.38a3.89,3.89,0,0,0,2.19,5.92A15.67,15.67,0,0,0,124.12,132.82Z"/><path class="cls-4" d="M93.69,64.51a15.63,15.63,0,0,0,13.24,12.42,3.88,3.88,0,0,0,4.28-4.64l-4.37-21.74a3.89,3.89,0,0,0-5.74-2.62A15.64,15.64,0,0,0,93.69,64.51Z"/><path class="cls-4" d="M65.64,32.2a15.65,15.65,0,0,0-11.7,13.9,3.89,3.89,0,0,0,4.86,4l21.48-5.53a3.89,3.89,0,0,0,2.31-5.87A15.66,15.66,0,0,0,65.64,32.2Z"/><path class="cls-5" d="M107.85,104.57A39.91,39.91,0,0,0,69.22,68.45,31.69,31.69,0,0,0,29.3,117.61a40,40,0,0,0,32.11,30.06,31.69,31.69,0,0,0,46.44-43.1Z"/><rect class="cls-6" x="71.02" y="119.71" width="5.58" height="9.58" rx="2.79"/><rect class="cls-6" x="102.17" y="121.7" width="5.58" height="9.58" rx="2.79" transform="translate(-56.16 94.01) rotate(-38.92)"/><rect class="cls-6" x="81.16" y="142.61" width="9.58" height="5.58" rx="2.79" transform="translate(-72.27 86.27) rotate(-38.92)"/><rect class="cls-6" x="68.57" y="87.23" width="5.58" height="9.58" rx="2.79"/><rect class="cls-6" x="88.79" y="78.27" width="5.58" height="9.58" rx="2.79" transform="translate(-31.85 75.96) rotate(-38.92)"/><rect class="cls-6" x="84.22" y="105.04" width="9.58" height="5.58" rx="2.79" transform="translate(-47.98 79.85) rotate(-38.92)"/><rect class="cls-6" x="22.44" y="82.33" width="5.58" height="9.58" rx="2.79"/><rect class="cls-6" x="50.9" y="72" width="5.58" height="9.58" rx="2.79" transform="translate(-36.32 50.78) rotate(-38.92)"/><rect class="cls-6" x="39.04" y="92.55" width="9.58" height="5.58" rx="2.79" transform="translate(-50.17 48.69) rotate(-38.92)"/><rect class="cls-6" x="52.47" y="104.31" width="5.58" height="9.58" rx="2.79" transform="translate(-56.27 58.93) rotate(-38.92)"/><rect class="cls-6" x="43.38" y="127.01" width="9.58" height="5.58" rx="2.79" transform="translate(-70.85 59.07) rotate(-38.92)"/></g></g></svg>