<svg xmlns="http://www.w3.org/2000/svg" viewBox="0 0 248.89 110.58"><defs><style>.cls-1{fill:#dbd8db;}.cls-2{fill:#464d58;}.cls-3{fill:#3d444d;}</style></defs><g id="Layer_2" data-name="Layer 2"><g id="Layer_7" data-name="Layer 7"><rect class="cls-1" y="40.04" width="248.89" height="30.24" rx="11.52"/><path class="cls-2" d="M22.42,14.54H49.66a0,0,0,0,1,0,0V95a0,0,0,0,1,0,0H22.42a8.55,8.55,0,0,1-8.55-8.55V23.09A8.55,8.55,0,0,1,22.42,14.54Z"/><path class="cls-2" d="M207,14.92h27.24a0,0,0,0,1,0,0V95.39a0,0,0,0,1,0,0H207a8.55,8.55,0,0,1-8.55-8.55V23.47A8.55,8.55,0,0,1,207,14.92Z" transform="translate(432.68 110.32) rotate(180)"/><rect class="cls-3" x="39.48" width="41.03" height="110.58" rx="9.14"/><rect class="cls-3" x="169.11" width="41.03" height="110.58" rx="9.14"/></g></g></svg>