<svg xmlns="http://www.w3.org/2000/svg" viewBox="0 0 129.22 134.9"><defs><style>.cls-1{fill:#dbd8db;}.cls-2{fill:#464d58;}.cls-3{fill:#de4a43;}</style></defs><g id="Layer_2" data-name="Layer 2"><g id="Layer_7" data-name="Layer 7"><path class="cls-1" d="M33.9,81.1h9.59a8.61,8.61,0,0,1,8.61,8.61v34.58a8.61,8.61,0,0,1-8.61,8.61H33.9a0,0,0,0,1,0,0V81.1A0,0,0,0,1,33.9,81.1Z" transform="translate(-34.04 21.19) rotate(-20.02)"/><path class="cls-2" d="M117,21.3C100.17.41,71.87-.19,64.61,0,57.34-.19,29,.41,12.21,21.3c-14.11,17.5-16,44.06-5.63,78.91l-.12,0c3.59,39,23.72,34.49,23.72,34.49L16.4,97.57l.15,0C7.14,66,8.37,42.58,20.21,27.83,33.5,11.28,56.94,10.28,63.67,10.35v.05l.93,0,.93,0v-.05c6.73-.07,30.18.93,43.47,17.48,11.84,14.75,13.07,38.2,3.65,69.69l.16,0L99,134.74s20.14,4.53,23.73-34.49l-.13,0C133,65.36,131.11,38.8,117,21.3Z"/><polygon class="cls-3" points="43.32 134.46 29.5 134.9 14.72 94.33 25.58 85.79 43.32 134.46"/><polygon class="cls-3" points="85.9 134.46 99.72 134.9 114.5 94.33 103.63 85.79 85.9 134.46"/><path class="cls-1" d="M77.11,81.1H86.7a8.61,8.61,0,0,1,8.61,8.61v34.58a8.61,8.61,0,0,1-8.61,8.61H77.11a0,0,0,0,1,0,0V81.1A0,0,0,0,1,77.11,81.1Z" transform="translate(130.58 237.06) rotate(-159.98)"/></g></g></svg>