<svg xmlns="http://www.w3.org/2000/svg" viewBox="0 0 129.22 134.9"><defs><style>.cls-1{fill:#dbd8db;}.cls-2{fill:#464d58;}.cls-3{fill:#cfcfce;}.cls-4{fill:#3d444d;}.cls-5{fill:#e0657c;}.cls-6{fill:#de4a43;}.cls-7{fill:#c02426;}</style></defs><g id="Layer_2" data-name="Layer 2"><g id="Layer_7" data-name="Layer 7"><path class="cls-1" d="M33.9,81.1h9.59a8.61,8.61,0,0,1,8.61,8.61v34.58a8.61,8.61,0,0,1-8.61,8.61H33.9a0,0,0,0,1,0,0V81.1A0,0,0,0,1,33.9,81.1Z" transform="translate(-34.04 21.19) rotate(-20.02)"/><path class="cls-1" d="M33.9,81.1h9.59a8.61,8.61,0,0,1,8.61,8.61v34.58a8.61,8.61,0,0,1-8.61,8.61H33.9a0,0,0,0,1,0,0V81.1A0,0,0,0,1,33.9,81.1Z" transform="translate(-34.04 21.19) rotate(-20.02)"/><path class="cls-2" d="M117,21.3C100.17.41,71.87-.19,64.61,0,57.34-.19,29,.41,12.21,21.3c-14.11,17.5-16,44.06-5.63,78.91l-.12,0c3.59,39,23.72,34.49,23.72,34.49L16.4,97.57l.15,0C7.14,66,8.37,42.58,20.21,27.83,33.5,11.28,56.94,10.28,63.67,10.35v.05l.93,0,.93,0v-.05c6.73-.07,30.18.93,43.47,17.48,11.84,14.75,13.07,38.2,3.65,69.69l.16,0L99,134.74s20.14,4.53,23.73-34.49l-.13,0C133,65.36,131.11,38.8,117,21.3Z"/><path class="cls-3" d="M27.11,89.59l9-3.28a8.6,8.6,0,0,1,10.42,3.82l-.9-2.49a8.62,8.62,0,0,0-11-5.14l-9,3.29,17.74,48.67.12-.05Z"/><path class="cls-4" d="M62.61,10.35h0Z"/><path class="cls-4" d="M16.55,97.52C7.14,66,8.37,42.58,20.21,27.83S52.13,10.66,61,10.38l-.41,0-.93,0v-.05c-6.73-.07-30.17.93-43.46,17.48C4.37,42.58,3.15,66,12.56,97.52l-.15,0,13.78,37.17a11.87,11.87,0,0,0,4,0L16.4,97.57Z"/><path class="cls-4" d="M63.67,10.36v0l.52,0Z"/><path class="cls-4" d="M117,21.3C100.17.41,71.87-.19,64.61,0c-.55,0-1.23,0-2,0C72.09,0,97.45,2,113,21.3c14.11,17.5,16,44.06,5.63,78.91l.13,0c-2.58,28-13.68,33.58-19.74,34.49h0s20.14,4.53,23.73-34.49l-.13,0C133,65.36,131.11,38.8,117,21.3Z"/><polygon class="cls-5" points="43.32 134.46 29.5 134.9 14.72 94.33 25.58 85.79 43.32 134.46"/><polygon class="cls-5" points="85.9 134.46 99.72 134.9 114.5 94.33 103.63 85.79 85.9 134.46"/><polygon class="cls-6" points="43.32 134.46 29.5 134.9 14.72 94.33 25.58 85.79 43.32 134.46"/><polygon class="cls-6" points="85.9 134.46 99.72 134.9 114.5 94.33 103.63 85.79 85.9 134.46"/><polygon class="cls-7" points="25.58 85.78 21.25 89.2 37.74 134.46 29.43 134.72 29.5 134.9 43.32 134.46 25.58 85.78"/><polygon class="cls-7" points="103.63 85.78 102.39 89.2 108.92 94.33 94.2 134.72 99.72 134.9 114.5 94.33 103.63 85.78"/><path class="cls-1" d="M77.11,81.1H86.7a8.61,8.61,0,0,1,8.61,8.61v34.58a8.61,8.61,0,0,1-8.61,8.61H77.11a0,0,0,0,1,0,0V81.1A0,0,0,0,1,77.11,81.1Z" transform="translate(130.58 237.06) rotate(-159.98)"/><path class="cls-3" d="M82.37,91.06a8.6,8.6,0,0,1,11-5.14l9,3.27,1.24-3.4-9-3.29a8.62,8.62,0,0,0-11,5.14L71.74,120.13c-.07.2-.12.39-.18.59Z"/></g></g></svg>