<svg xmlns="http://www.w3.org/2000/svg" viewBox="0 0 157.98 165.27"><defs><style>.cls-1{fill:#e5b7a0;}.cls-2{fill:#39b28c;}.cls-3{fill:#fec23f;}.cls-4{fill:#de4a43;}.cls-5{fill:#f6d7c1;}.cls-6{fill:none;stroke:#e5b7a0;stroke-miterlimit:10;stroke-width:3px;}</style></defs><g id="Layer_2" data-name="Layer 2"><g id="Layer_7" data-name="Layer 7"><path class="cls-1" d="M95.72,150.16l47.83-47.83h0a24.42,24.42,0,0,0-34.54,0L78.45,132.89Z"/><circle class="cls-2" cx="65.01" cy="25.43" r="25.43"/><circle class="cls-3" cx="37.2" cy="78.61" r="25.43"/><circle class="cls-4" cx="107.36" cy="62.48" r="25.43"/><path class="cls-5" d="M123.43,104.84,97.27,131l-7.11-.41a23.64,23.64,0,0,0-20.65-17.12l-27.05-2.39a14,14,0,0,0-3.37.13v0C14.34,114.83,0,141,0,141l34.56,24.28c4.95-9.31,10.66-12.75,10.66-12.76L106.81,156h0L158,104.84h0A24.43,24.43,0,0,0,123.43,104.84Z"/><path class="cls-6" d="M45.23,135.93,92,140.42a16.82,16.82,0,0,0-1.5-11.71"/></g></g></svg>