<svg xmlns="http://www.w3.org/2000/svg" viewBox="0 0 100.84 135.69"><defs><style>.cls-1{fill:#464d58;}</style></defs><g id="Layer_2" data-name="Layer 2"><g id="Layer_7" data-name="Layer 7"><path class="cls-1" d="M83,11.46C77.85,3.85,66.92,0,50.55,0V.06c-16-.54-26.91,2.88-32.32,10.19a18.46,18.46,0,0,0-2.81,15.88l6.3,32.4,13.42-2.61L28.77,23.18v-.34l-.22-.55a4.73,4.73,0,0,1,.77-4c1.22-1.57,5.73-5.16,21.28-4.54v-.07c15.52,0,19.89,3.76,21,5.38a4.73,4.73,0,0,1,.61,4l-.25.55L72,24,64.33,56.43l13.31,3.13,7.57-32.12A18.45,18.45,0,0,0,83,11.46Z"/><path class="cls-1" d="M31.32,135.69H69.53a15.67,15.67,0,0,0,8.62-2.61,50.42,50.42,0,1,0-55.3.1A15.41,15.41,0,0,0,31.32,135.69Z"/></g></g></svg>