<svg xmlns="http://www.w3.org/2000/svg" viewBox="0 0 102.2 146.43"><defs><style>.cls-1{fill:#f4f4f5;}.cls-2{fill:#e2aa76;}.cls-3{fill:#b47f5f;}</style></defs><g id="Layer_2" data-name="Layer 2"><g id="Layer_7" data-name="Layer 7"><path class="cls-1" d="M81.59,146.43h-61a7.25,7.25,0,0,1-7.23-6.72L5.87,36.91H96.33l-7.51,102.8A7.25,7.25,0,0,1,81.59,146.43Z"/><polygon class="cls-2" points="92.33 110.43 9.87 110.43 5.87 51.91 96.33 51.91 92.33 110.43"/><path class="cls-3" d="M5.7,18.51H96.5a5.7,5.7,0,0,1,5.7,5.7V39.13a0,0,0,0,1,0,0H0a0,0,0,0,1,0,0V24.22A5.7,5.7,0,0,1,5.7,18.51Z"/><polygon class="cls-3" points="95.24 19.62 6.96 19.62 9.96 0 92.24 5.88 95.24 19.62"/><ellipse class="cls-3" cx="50.49" cy="81.03" rx="14.55" ry="17.93"/><path class="cls-2" d="M51.1,93.17a1.49,1.49,0,0,1-.8-2.76c1.48-1-.54-5.09-1.88-7.83a34.82,34.82,0,0,1-1.56-3.49c-1.65-4.67,2.47-8.34,2.64-8.5a1.5,1.5,0,1,1,2,2.26s-2.76,2.5-1.79,5.24a32.38,32.38,0,0,0,1.43,3.17c2,4.14,4.53,9.3.78,11.68A1.46,1.46,0,0,1,51.1,93.17Z"/></g></g></svg>