<svg xmlns="http://www.w3.org/2000/svg" viewBox="0 0 153.43 152.88"><defs><style>.cls-1{fill:#fec23f;}.cls-2{fill:#fceca4;}.cls-3{fill:#fcbf61;}.cls-4{fill:#e23a3b;}.cls-5{fill:#de4a43;}.cls-6{fill:#39b28c;}</style></defs><g id="Layer_2" data-name="Layer 2"><g id="Layer_7" data-name="Layer 7"><path class="cls-1" d="M41.54,20.9,21.13,81.65.37,143.39a7.24,7.24,0,0,0,9,9.16L71.5,133.13l61-19A120.94,120.94,0,0,0,116.57,77C99.52,50.12,74.28,31.27,41.54,20.9Z"/><path class="cls-2" d="M45.19,10.05,41.54,20.9c32.74,10.37,58,29.22,75,56.06a120.94,120.94,0,0,1,15.91,37.12l9.75-3,3.39-1.06c.16-.09.31-.2.46-.3A136,136,0,0,0,129,69.92a142.43,142.43,0,0,0-18.51-23.51C96,31.55,75.32,16.8,46.32,7.51a6.64,6.64,0,0,0-.65,1.1A8.11,8.11,0,0,0,45.19,10.05Z"/><path class="cls-3" d="M116.94,40.08a142.43,142.43,0,0,1,18.51,23.51c14.42,22.94,17.75,42.54,17.88,43.36a7.11,7.11,0,0,1-14,2.31c0-.26-3.18-18.09-16.22-38.63C105.66,43.23,79.72,24.15,46,13.93A7.11,7.11,0,1,1,50.09.31C80.54,9.53,102,24.75,116.94,40.08Z"/><circle class="cls-4" cx="33.13" cy="116.23" r="14.98"/><circle class="cls-5" cx="81.97" cy="106.11" r="14.98"/><circle class="cls-5" cx="63.68" cy="56.79" r="14.98"/><path class="cls-6" d="M40,88.28s5.33-11.17,15.33-5C55.36,83.29,51.62,93.94,40,88.28Z"/><path class="cls-6" d="M102.61,96.36S97.78,85,109,81.58C109,81.58,114.53,91.44,102.61,96.36Z"/><path class="cls-6" d="M88.78,83s7-8.73,14.51-1.23C103.29,81.74,97.81,90.34,88.78,83Z"/><path class="cls-6" d="M9.52,137.18s2-11,12.18-8C21.7,129.2,21,139.38,9.52,137.18Z"/><path class="cls-6" d="M45.85,30.79S57,30.66,56,41.23C56,41.23,45.89,42.45,45.85,30.79Z"/><path class="cls-6" d="M49.55,135.57S43.11,125,53.75,120C53.75,120,60.63,129,49.55,135.57Z"/></g></g></svg>