<svg xmlns="http://www.w3.org/2000/svg" viewBox="0 0 110.78 140.29"><defs><style>.cls-1{fill:#b47f5f;}.cls-2{fill:#e2aa76;}.cls-3{fill:#e5b7a0;}.cls-4{fill:#f6d7c1;}.cls-5{fill:#3d444d;}.cls-6{fill:#353b42;}.cls-7{fill:#3c2418;}</style></defs><g id="Layer_2" data-name="Layer 2"><g id="Layer_7" data-name="Layer 7"><rect class="cls-1" width="110.78" height="140.29"/><rect class="cls-2" x="6.73" y="8.53" width="97.31" height="123.23"/><path class="cls-3" d="M46.47,68.64a8.57,8.57,0,0,1-3.95,10.44L36.64,92.77l7.09,11.15L58.84,102,71.41,89.83v-34S60.76,74,46.47,68.64Z"/><path class="cls-4" d="M62.35,37.27h0a13.08,13.08,0,0,0-9.14-4c-8.54,0-15.47,9.17-15.47,20.48,0,10.63,6.11,19.36,13.93,20.39a11.27,11.27,0,0,0,1.54.1C59,74.27,64,70.14,66.63,64l.22-17S66.17,41,62.35,37.27Zm-.62-.57-.19-.15ZM61,36.17,60.81,36Zm-.77-.49-.22-.13Zm-1-.54h0Zm-.87-.32-.28-.09Zm-.94-.26-.33-.07Zm-1-.18-.32,0Z"/><path class="cls-5" d="M43.33,81,31.57,87.9s-12.77,17,.61,31.93v11.56H93.61s4.86-37.81-18-48l-4.56.1S64.92,95.6,51.34,100.17c0,0-9.13,1.62-10.55-5.17S43.33,81,43.33,81Z"/><path class="cls-6" d="M99.18,131.39c0,.83-32.94,0-32.94,0S68.67,92,87.57,95.23C87.57,95.23,99.39,102.9,99.18,131.39Z"/><path class="cls-4" d="M53.67,131.76s4-14.26-20-11l-3.25,1.62-.4,9.07Z"/><path class="cls-6" d="M31.57,87.9s-16.22,14.33-18.25,43.86l18.86-.37S30,125.1,33.7,120.74C33.7,120.74,26,108.43,31.57,87.9Z"/><path class="cls-7" d="M68.89,28s-20-8.32-31.85,7a9.28,9.28,0,0,1-.71.82c-.88.9-3.41,4.19-4.68,12.86a6.43,6.43,0,0,0-.08,1.07V87.9L52.15,75.84l-.47-1.67c-7.82-1-13.93-9.76-13.93-20.39,0-11.31,6.93-20.48,15.47-20.48a13.65,13.65,0,0,1,10.51,5.45,16.24,16.24,0,0,0-1.37-1.49h0a16.6,16.6,0,0,1,4,7.36,14.41,14.41,0,0,1,.48,3.87L66.63,64l-.36,28.11a1.45,1.45,0,0,0,2.1,1.32h0l13.95-5.87a4.19,4.19,0,0,0,2.57-3.86V53.47a21,21,0,0,0-.52-4.67C83.15,43.48,79.38,32.12,68.89,28Z"/></g></g></svg>