<svg xmlns="http://www.w3.org/2000/svg" viewBox="0 0 141.78 140.19"><defs><style>.cls-1{fill:#f4f4f5;}.cls-2{fill:#2f375a;}</style></defs><g id="Layer_2" data-name="Layer 2"><g id="Layer_7" data-name="Layer 7"><path class="cls-1" d="M32.13,6.09H50.28a0,0,0,0,1,0,0v34.7a9.08,9.08,0,0,1-9.08,9.08h0a9.08,9.08,0,0,1-9.08-9.08V6.09a0,0,0,0,1,0,0Z" transform="translate(31.08 -20.79) rotate(44.09)"/><polygon class="cls-2" points="0.73 94.67 24.47 108.93 34.23 87.98 8.89 87.88 0.73 94.67"/><polygon class="cls-2" points="0 12.17 55.96 61.35 78.87 37.7 15.69 0.08 0 12.17"/><path class="cls-1" d="M113.09,75.73h0a9.08,9.08,0,0,1,9.08,9.08v34.7a0,0,0,0,1,0,0H104a0,0,0,0,1,0,0V84.8A9.08,9.08,0,0,1,113.09,75.73Z" transform="translate(126.39 246.41) rotate(-135.91)"/><polygon class="cls-2" points="47.71 140.19 32.71 116.91 53.33 106.49 54.24 131.81 47.71 140.19"/><polygon class="cls-2" points="130.19 138.3 79.26 83.93 102.17 60.28 141.78 122.23 130.19 138.3"/><path class="cls-1" d="M135.94,2.11s-13.41-5.24-24.82.8c0,0-4.52,1.38-15.42,14.07S35.06,82.24,35.06,82.24a50,50,0,0,0-7.89,11.43c-3.33,6.71-5.22,21.38-5.2,22.39v.21a2.54,2.54,0,0,0,.78,2.78,2.41,2.41,0,0,0,3,.58c1.34-.07,15.64-2.41,22.16-5.9a50.47,50.47,0,0,0,11.18-8.25s51-51.38,63.3-62.68,13.58-15.86,13.58-15.86c5.67-11.6,0-24.83,0-24.83"/><rect class="cls-2" x="19.8" y="110.08" width="5.42" height="18.56" rx="2.71" transform="translate(89.39 17.96) rotate(44.09)"/><path class="cls-2" d="M107.28,17.45c4.2-2.92,9.8-2.77,13.34.66s3.87,9,1.09,13.32L123,32.64c3.42-5,3.07-11.67-1.15-15.76s-10.89-4.22-15.78-.64Z"/></g></g></svg>