<svg xmlns="http://www.w3.org/2000/svg" viewBox="0 0 165.15 147.15"><defs><style>.cls-1{fill:none;}.cls-2{fill:#2f375a;}.cls-3{fill:#f4f4f5;}.cls-4{fill:#fec23f;}</style></defs><g id="Layer_2" data-name="Layer 2"><g id="Layer_7" data-name="Layer 7"><path class="cls-1" d="M26.35,15.65s-12.78,9.4-13,29.23L0,136.45l70.44,10.44L80.1,91.58s2.87-4.7,5.48,0,8.87,55.57,8.87,55.57L165.15,137,151.32,36.53S149.76,23.22,138,15.92Z"/><path class="cls-2" d="M4.46,105.78.66,131.9a4.62,4.62,0,0,0,3.89,5.23L66,146.23a4.62,4.62,0,0,0,5.22-3.77l5.29-30.33C59.91,115.53,36.72,115.64,4.46,105.78Z"/><path class="cls-3" d="M96.53,53.48c-4.07,2-6.09,3.52-9.39,5.48C72.34,67.78,48.57,76,9.18,73.29L4.46,105.78c32.26,9.86,55.45,9.75,72.05,6.35L80.1,91.58s2.87-4.7,5.48,0c.88,1.59,2.19,8.54,3.54,17a79.39,79.39,0,0,1,8.54-2.76c24-6.1,47,1.75,64.78,11.48L153,48.7C135.48,44.79,115.34,44.17,96.53,53.48Z"/><path class="cls-2" d="M97.66,105.83a79.39,79.39,0,0,0-8.54,2.76c1.87,11.79,3.8,26.54,4.74,33.91a4.61,4.61,0,0,0,5.23,4l61.53-8.85a4.62,4.62,0,0,0,3.91-5.2l-2.09-15.12C144.67,107.58,121.7,99.73,97.66,105.83Z"/><path class="cls-4" d="M28.52,0H135.81a2.41,2.41,0,0,1,2.41,2.41V16.26a0,0,0,0,1,0,0H26.12a0,0,0,0,1,0,0V2.41A2.41,2.41,0,0,1,28.52,0Z"/><path class="cls-4" d="M87.14,59c3.3-2,5.32-3.46,9.39-5.48,18.81-9.31,38.95-8.69,56.47-4.78l-1.68-12.17S149.76,23.22,138,15.92L26.35,15.65s-12.78,9.4-13,29.23L9.18,73.29C48.57,76,72.34,67.78,87.14,59Z"/><path class="cls-2" d="M58.64,48.66a2.49,2.49,0,0,1-.47,0,2.36,2.36,0,0,1-1.84-2.78c6.58-32.1,17-39.18,17.46-39.47a2.36,2.36,0,0,1,2.59,3.94c-.21.15-9.39,7-15.44,36.47A2.34,2.34,0,0,1,58.64,48.66Z"/><path class="cls-2" d="M106.77,47.25a2,2,0,0,0,.48,0,2.35,2.35,0,0,0,1.83-2.78C102.5,12.32,92.06,5.25,91.62,5A2.35,2.35,0,0,0,89,8.89c.21.16,9.39,7,15.44,36.48A2.36,2.36,0,0,0,106.77,47.25Z"/></g></g></svg>