<svg xmlns="http://www.w3.org/2000/svg" viewBox="0 0 113.8 376.98"><defs><style>.cls-1{fill:#1f1928;}.cls-2{fill:#edc7a2;}.cls-3{fill:#c6907b;}.cls-15,.cls-16,.cls-18,.cls-20,.cls-4,.cls-8{fill:none;stroke-miterlimit:10;}.cls-15,.cls-18,.cls-4{stroke:#e4e1ef;}.cls-5{fill:#4a4559;}.cls-6{fill:#e4e1ef;}.cls-7{fill:#7a6d84;}.cls-8{stroke:#2d2b3a;}.cls-9{fill:#d69d1d;}.cls-10{fill:#aa7a1a;}.cls-11{fill:#0c0908;}.cls-12{fill:#4c352e;}.cls-13{fill:#fff;}.cls-14{fill:#e57f67;}.cls-15{stroke-width:3px;}.cls-16{stroke:#edd198;}.cls-17{fill:#edd198;}.cls-18{stroke-width:0.5px;}.cls-19{fill:#00fc13;}.cls-20{stroke:#070040;stroke-width:2px;}.cls-21{fill:#424147;}.cls-22{fill:#32273a;}</style></defs><g id="hair"><path class="cls-1" d="M61.28,15c-3.23,2.46-5.52,5.1-10.1,14.05-5.62,11-8.39,16.54-6.6,20.93,2.35,5.78,9,7.83,7.93,11.84C51.94,64,48.56,63.67,47,66.4a10.37,10.37,0,0,0-1.25,7.89c2.13,9.63-4.28,18.14-5.19,19.31-1.21,1.56-3,3-6.07,6-7.27,7.19-11.27,7-4.85,16.49s13.43,4.65,9.53,16.41-6.32,17.41,5,23.36,1.72-.59,17.83,5.2,1,28.81,22.42,13.7S99,147.32,109.36,149.46s14.14,10.1,17.93-.12,6.88-7.7-1.53-17.59-6.86-15.77-3.11-20.31c2.26-2.73,5.23-1.64,6.64-2.8,2.53-2.08.4-6.41.12-7.06-1-2.39-2.13-2.25-2.85-4.34-1.06-3.08.94-4.49.22-7s-3.15-2.84-7.1-5.54c-4.8-3.27-15.49-10.14-14.21-15.58.46-1.92,1.55-2,1.68-4.14.22-3.42-2.54-4.62-2.23-7.76.26-2.56,2.16-2.49,2.47-4.88.45-3.59-3.71-4.8-4.54-8.74s.6-6.85,1.59-11.79c1.18-5.93-4-10-6.38-13-1.75-2.22-1.74-5.65-12.93-8C75.24,8.63,68,9.8,61.28,15Z" transform="translate(-26.46 -9.75)"/><ellipse class="cls-2" cx="59.77" cy="42.18" rx="6.41" ry="8.23" transform="translate(-37.03 12.32) rotate(-19.25)"/><ellipse class="cls-2" cx="96.24" cy="42.02" rx="8.23" ry="6.41" transform="translate(-0.94 109.9) rotate(-71.26)"/><rect class="cls-2" x="70.48" y="49.96" width="15.03" height="28.99" transform="translate(-16.65 -20.05) rotate(8.07)"/><path class="cls-3" d="M85.45,65.4l2-14.24L72.59,49.05l-2.27,16A14.36,14.36,0,0,0,85.45,65.4Z" transform="translate(-26.46 -9.75)"/><path class="cls-2" d="M91.27,18.4C86.77,13.88,80.8,13.91,79,13.92c-.34,0-.75,0-1.22.05s-.88,0-1.22,0c-1.81,0-7.78,0-12.24,4.59-4.94,5-4.85,12.38-4.77,18.63.07,5.86.16,13.72,5.67,19.66.88.94,5.2,5.59,11.21,5.67a11.57,11.57,0,0,0,1.56-.1,11.66,11.66,0,0,0,1.56.09c6-.13,10.3-4.83,11.16-5.77,5.46-6,5.49-13.85,5.51-19.71C96.23,30.74,96.25,23.4,91.27,18.4Z" transform="translate(-26.46 -9.75)"/><ellipse class="cls-4" cx="70.44" cy="43.03" rx="1.8" ry="6.35"/><ellipse class="cls-4" cx="30.07" cy="41.87" rx="2.02" ry="6.35"/><path class="cls-5" d="M53.73,162a112.31,112.31,0,0,0-4.11,14.14c-5.7,25.95,2.17,35,3.57,70.85.89,22.8-1.67,34.83,5.8,39.15,4.21,2.43,10.22,1.62,14.3-1,9.64-6.26,6-21.17,7.26-45.6,2.29-43.38,17.1-57.52,6.36-82.39A60.23,60.23,0,0,0,77,141.5Z" transform="translate(-26.46 -9.75)"/><path class="cls-2" d="M59,336.35c1.27,12.73-2,19.2-5.21,22.76-4.08,4.5-16.26,13.34-23.31,19.43-.46.39-1.38,1.21-1.23,2.06.41,2.4,9.13,3.76,16.9,2.24,1.28-.25,4.37-1.43,10.51-3.78C67,375.13,67.94,374.51,69,373.39c2.38-2.53,1.89-14.95,1.89-14.95s2.35-18.23,3.61-21.16S77,330.91,77,330.91Z" transform="translate(-26.46 -9.75)"/><path class="cls-6" d="M53.82,359.11a19,19,0,0,0,3.65-6.06h1.6l0,6.38,2.85,1.63,5.22-4.34,4.06-.37c-.17,1.28-.28,2.09-.28,2.09s.49,12.41-1.89,14.94c-1.06,1.12-2,1.74-12.31,5.67-6.14,2.35-9.23,3.53-10.51,3.78-7.77,1.52-16.49.16-16.9-2.24-.15-.85.77-1.67,1.23-2.06C37.56,372.45,49.74,363.61,53.82,359.11Z" transform="translate(-26.46 -9.75)"/><path class="cls-5" d="M53.18,277.55,57.47,342s9.94,1.93,19.17,0l2.46-67.3a13,13,0,1,0-25.92,2.84Z" transform="translate(-26.46 -9.75)"/><path class="cls-7" d="M57.17,337.48l.3,4.53s9.94,1.93,19.17,0l.14-3.78C69.86,341.06,62,339.13,57.17,337.48Z" transform="translate(-26.46 -9.75)"/><path class="cls-5" d="M99.57,156.57a120.64,120.64,0,0,1,9.2,12.26c12.91,19.71,11.09,29.66,22.35,65.73,7.13,22.83,12.22,32.87,6.77,39-3.23,3.63-9.2,4.75-13.9,3.52-11.12-2.92-12.31-18.23-21.19-41C87,195.57,68.53,186.78,70.93,159.8a60.18,60.18,0,0,1,4.53-18Q87.51,149.2,99.57,156.57Z" transform="translate(-26.46 -9.75)"/><path class="cls-8" d="M85.91,165.42l.6,10.89a6.19,6.19,0,0,1-.45,3.42,4.17,4.17,0,0,1-2.45,1.85,12.34,12.34,0,0,1-3.1.44L78.7,175.5" transform="translate(-26.46 -9.75)"/><path class="cls-2" d="M116.88,333c-7.41,10.43-7.79,17.66-6.75,22.35,1.31,5.94,7.51,19.65,10.62,28.43.2.57.6,1.74,0,2.4-1.55,1.88-9.8-1.25-15.79-6.42-1-.85-3.09-3.41-7.26-8.49-7-8.52-7.52-9.54-7.88-11-.81-3.37,5.76-13.92,5.76-13.92s7-17,7.35-20.17,1-6.76,1-6.76Z" transform="translate(-26.46 -9.75)"/><path class="cls-6" d="M120.75,383.77c-3.11-8.78-9.31-22.49-10.62-28.43a19.1,19.1,0,0,1,0-7.78l-.61-.1-.84,5.16-4.68-.76-2.77-6.34-3.73-3.71c-1,2.62-1.82,4.5-1.82,4.5s-6.57,10.55-5.76,13.92c.36,1.49.89,2.51,7.88,11,4.17,5.08,6.27,7.64,7.26,8.49,6,5.17,14.24,8.3,15.79,6.42C121.35,385.51,121,384.34,120.75,383.77Z" transform="translate(-26.46 -9.75)"/><path class="cls-5" d="M114.79,264.87l-14.41,63s9,4.7,18.37,5.5l21.36-65.21a12.77,12.77,0,1,0-25.32-3.27Z" transform="translate(-26.46 -9.75)"/><path class="cls-7" d="M101,323.78l-.93,4.07s9,4.7,18.37,5.5l.91-2.8C109.33,328.41,103.88,325.79,101,323.78Z" transform="translate(-26.46 -9.75)"/><path class="cls-2" d="M76.69,71A78.22,78.22,0,0,1,58,77.16a78,78,0,0,1-9.33,1.2,35.33,35.33,0,0,0,2.69,19,32.48,32.48,0,0,0,10,12.14C74.61,119,98.5,118.15,107,105.07c4.26-6.56,4.74-16.64.39-23-2.28-3.3-6.3-4.64-14.35-7.33A86.69,86.69,0,0,0,76.69,71Z" transform="translate(-26.46 -9.75)"/><path class="cls-9" d="M115.4,163.64c-9.87-12.5-12.39-23-12.88-30.24-.65-9.43,2-14.51,3.4-28.17a128.57,128.57,0,0,0-.38-28.85,61.86,61.86,0,0,1-7.23-.73,62.83,62.83,0,0,1-6.24-1.32,24.85,24.85,0,0,1-13,9C65,87.15,62,76.2,62,76.2l.32-.75c-1.73.46-3.54.89-5.43,1.27a102.19,102.19,0,0,1-11.11,1.65,52.6,52.6,0,0,1,4.47,19c.28,7.64-.95,21.61-.17,26,1,5.48,1.35,7.11,1.35,7.11.87,4.23,1.4,6.2,1.74,8.57,0,0,.21,1.65.31,3.1.5,7-8.52,23.47-9.06,24.45a139.79,139.79,0,0,0,40,2.9A138.51,138.51,0,0,0,115.4,163.64Z" transform="translate(-26.46 -9.75)"/><path class="cls-6" d="M69.22,73.17a85.62,85.62,0,0,0,.71,18.46c.21,1.52.47,3.05.74,4.57s.59,3,1,4.52A21.5,21.5,0,0,0,73.31,105a6.24,6.24,0,0,0,1.33,1.81,1.69,1.69,0,0,0,1.89.4,4.35,4.35,0,0,0,1.59-1.44,15,15,0,0,0,1.17-1.93,37.4,37.4,0,0,0,1.8-4.22,65.24,65.24,0,0,0,2.52-8.86,59,59,0,0,0,.8-18.39h.1A46.82,46.82,0,0,1,84.65,91,53.91,53.91,0,0,1,82,100a31.7,31.7,0,0,1-2,4.27,13.42,13.42,0,0,1-1.34,2,4.93,4.93,0,0,1-1.92,1.53,2.06,2.06,0,0,1-1.3.07,2.76,2.76,0,0,1-1.08-.66,7.8,7.8,0,0,1-1.35-2,30.48,30.48,0,0,1-1.65-4.38c-.86-3-1.65-6-2.24-9.06a53.85,53.85,0,0,1,0-18.61Z" transform="translate(-26.46 -9.75)"/><path class="cls-2" d="M114.87,84.33a211.17,211.17,0,0,1,7.95,38.29,205.67,205.67,0,0,1,1.27,23.68,7,7,0,0,1,0,2h0a5.9,5.9,0,0,1-.19.89c-1.14,4-5.56,6.19-9.87,4.94a8.11,8.11,0,0,1-6-6.71q-2.1-15-4.21-30v-.06a87.82,87.82,0,0,1-.41-18.89c.42-7.14.83-13.2,1.24-18.66Z" transform="translate(-26.46 -9.75)"/><path class="cls-9" d="M99.91,78.63s6.3-6.08,12.62,1.54,8.51,25.91,12,26.62a22,22,0,0,1-20.45,5.28l-4-10.71h0Z" transform="translate(-26.46 -9.75)"/><path class="cls-10" d="M104.31,112a59.15,59.15,0,0,1-2.21-6.45l-.92-3.25c-.16-.53-.31-1.08-.49-1.6a6.62,6.62,0,0,0-.3-.78c-.12-.22-.23-.56-.53-.49.11-.11.3-.06.43,0a1.62,1.62,0,0,1,.33.31,5.2,5.2,0,0,1,.51.72,13.22,13.22,0,0,1,.78,1.55,28.86,28.86,0,0,1,1.15,3.23A32,32,0,0,1,104.31,112Z" transform="translate(-26.46 -9.75)"/><ellipse class="cls-11" cx="44.31" cy="29.21" rx="1.18" ry="2.31"/><ellipse class="cls-11" cx="58.49" cy="29.21" rx="1.18" ry="2.31"/><path class="cls-12" d="M78.33,40.64a16.25,16.25,0,0,1,1.29,2.08,10.1,10.1,0,0,1,1,2.31,2.62,2.62,0,0,1-.1,1.46,2.3,2.3,0,0,1-1,1.09,2.58,2.58,0,0,1-2.54,0,3.2,3.2,0,0,0,2.1-.66,1.63,1.63,0,0,0,.53-1.7c-.13-.66-.5-1.43-.72-2.21A15.3,15.3,0,0,1,78.33,40.64Z" transform="translate(-26.46 -9.75)"/><path class="cls-13" d="M73.09,53.14a29.73,29.73,0,0,0,12.46,0,18.41,18.41,0,0,1-4.29,2.1,8.85,8.85,0,0,1-5.22.07,7.5,7.5,0,0,1-2.71-1.86" transform="translate(-26.46 -9.75)"/><path class="cls-14" d="M73.39,53.13c2,0,3.94.1,5.89.07s3.88-.12,5.9-.18a14.9,14.9,0,0,1-5.89,1.18A15.06,15.06,0,0,1,73.39,53.13Z" transform="translate(-26.46 -9.75)"/><path class="cls-14" d="M73.33,53.45a6.85,6.85,0,0,0,2.79,1.83,6.34,6.34,0,0,0,3.15.45,4.71,4.71,0,0,0,1.48-.5c.51-.25,1-.53,1.56-.76a29.74,29.74,0,0,1,3.24-1.33,29.58,29.58,0,0,1-2.87,2c-.48.32-1,.61-1.48.91a5.15,5.15,0,0,1-1.78.66A6,6,0,0,1,75.81,56,5.12,5.12,0,0,1,73.33,53.45Z" transform="translate(-26.46 -9.75)"/><path class="cls-1" d="M63.89,33.9a8,8,0,0,1,5-.39,17,17,0,0,0,5,.48c.57-.07,1.27-.38,1.25-1s-.8-.85-1.41-.91A24.14,24.14,0,0,0,67.87,32a8.06,8.06,0,0,0-5.11,2.56" transform="translate(-26.46 -9.75)"/><path class="cls-1" d="M91.83,33.05a8,8,0,0,0-5-.39,17,17,0,0,1-5,.48c-.58-.07-1.28-.38-1.25-1s.79-.85,1.4-.91a24.23,24.23,0,0,1,5.83-.16A8,8,0,0,1,93,33.67" transform="translate(-26.46 -9.75)"/><path class="cls-15" d="M72.68,250.87c-2.34-6.52,4-8.12,3.06-19.06-.57-6.39-2.94-8-2.54-14.48.16-2.61.4-7.74,3.53-11.22,7.16-8,25.75-6.52,32.94,3.57a20.59,20.59,0,0,1,3,15.5,18.83,18.83,0,0,1-.76,2.46c-2.51,6.91-6.13,8.12-7.88,11.76-3.82,7.93,6.36,16.77,2,23.07a7.89,7.89,0,0,1-3.42,2.66s-1.69,5.38-6.42,4.67c-3.5-.53-7,1.69-9,.41a4.12,4.12,0,0,1-1.51-2.93C84,259.84,75.21,257.9,72.68,250.87Z" transform="translate(-26.46 -9.75)"/><path class="cls-6" d="M81,264.36H115.1a6.56,6.56,0,0,1,6.56,6.56v23.57a1.18,1.18,0,0,1-1.18,1.18H75.64a1.18,1.18,0,0,1-1.18-1.18V270.91A6.56,6.56,0,0,1,81,264.36Z" transform="translate(-78.99 14.63) rotate(-11.2)"/><path class="cls-16" d="M109.75,269.18a6.54,6.54,0,0,1,2.78,4.17L115,285.93a1.17,1.17,0,0,1-.92,1.38L86,292.87a1.17,1.17,0,0,1-1.38-.92l-2.49-12.58a6.51,6.51,0,0,1,.31-3.62" transform="translate(-26.46 -9.75)"/><polyline class="cls-16" points="46.67 263.47 71.59 270.26 91 253.25"/><circle class="cls-17" cx="71.6" cy="270.26" r="2.33"/><circle class="cls-18" cx="42.47" cy="29.21" r="6.82"/><circle class="cls-18" cx="60.76" cy="29.21" r="6.82"/><path class="cls-18" d="M75.59,36.68a3.6,3.6,0,0,1,4.92.81" transform="translate(-26.46 -9.75)"/><path class="cls-2" d="M39,95.65a210.09,210.09,0,0,0-7.43,38.43,204.15,204.15,0,0,0-.94,23.71,7,7,0,0,0,0,2h0a6.77,6.77,0,0,0,.21.89c1.2,4,5.67,6.1,10,4.79a8.15,8.15,0,0,0,5.87-6.82q1.91-15,3.8-30.07v-.07a85.81,85.81,0,0,0,.13-18.89c-.27-4.34.44-10.69,5.13-19.08Z" transform="translate(-26.46 -9.75)"/><path class="cls-9" d="M47.57,78.36c-3.74-.52-7.1,3.23-8,4.24-5.43,6.24-2.79,12.67-8.51,25.19-.54,1.17-1,2.11-1.34,2.72a24.51,24.51,0,0,0,9.25,2.9c2.47.26,6.77.67,10.42-1.39,7-3.91,7.83-14.69,6.38-21.49C55.51,89.2,53.25,79.15,47.57,78.36Z" transform="translate(-26.46 -9.75)"/><path class="cls-10" d="M50.78,111.1a58,58,0,0,1,1.78-6.58l1-3.21c.17-.53.35-1.06.5-1.6a5.93,5.93,0,0,0,.19-.81c0-.25.12-.59-.17-.71.16,0,.29.13.34.27a1.77,1.77,0,0,1,.11.44,6.61,6.61,0,0,1,0,.89,14.21,14.21,0,0,1-.23,1.72,28.88,28.88,0,0,1-.86,3.32A32.54,32.54,0,0,1,50.78,111.1Z" transform="translate(-26.46 -9.75)"/><path class="cls-19" d="M151.93,84.31" transform="translate(-26.46 -9.75)"/><path class="cls-9" d="M113.6,110.88" transform="translate(-26.46 -9.75)"/><path class="cls-20" d="M87.22,270.21" transform="translate(-26.46 -9.75)"/><path class="cls-2" d="M70,193.2c1.82,1.61,1.26,2.28,3.19,4.47,2.15,2.43,3.68,2.46,7.92,5.49,2.1,1.5,3.72,2.83,4.72,3.7a13,13,0,0,1-1.4,7.79c-.38.68-2.91,5.31-6,5.1-2.35-.15-3.73-3-5.24-2.42-.92.37-.85,1.6-1.4,1.66-1.16.11-2.33-5.33-3.86-9.31a35.71,35.71,0,0,0-7.63-11.85c-.73-2.93,0-5.78,1.79-6.93C65.15,189,69.73,192.94,70,193.2Z" transform="translate(-26.46 -9.75)"/><path class="cls-2" d="M88.18,210.39l-.06-.21-.44-.35Z" transform="translate(-26.46 -9.75)"/><path class="cls-2" d="M66.13,205.75A20.55,20.55,0,0,1,69,202.17a21.08,21.08,0,0,1,3.85-3,196.67,196.67,0,0,0-20.28-34.71c-4.53-6.17-8.44-11.87-13.61-11.58-3.73.21-8,3.47-8.3,6.92-.11,1.27.37,1.88,2.46,5.46,2.55,4.35,4.54,9.11,7.74,13a50.42,50.42,0,0,0,3.77,4.3c6.84,7.15,15,15.26,19.51,19.64Z" transform="translate(-26.46 -9.75)"/><path class="cls-21" d="M63.3,201.35a3.14,3.14,0,0,0-.12.46c0,.15,0,.26.06.23a2.06,2.06,0,0,0,.71,0c.59-.11,1.2-.3,1.84-.41a12.52,12.52,0,0,0,1.92-.37,5.82,5.82,0,0,0,1.69-.93c.5-.41,1-.82,1.45-1.24A8.84,8.84,0,0,0,72,197.68a1.84,1.84,0,0,0,.47-1.38c-.2-.53-.45-1.19-1.05-1.27l0-.09a1,1,0,0,1,1.07.21,3.12,3.12,0,0,1,.73.81,1.76,1.76,0,0,1,.16,1.26,3.3,3.3,0,0,1-.45,1.05,6.17,6.17,0,0,1-1.47,1.5,7.14,7.14,0,0,1-1.79,1c-.63.25-1.24.49-1.84.76s-1.2.62-1.82.87a6,6,0,0,1-2,.38,2.16,2.16,0,0,1-.56-.05.94.94,0,0,1-.61-.33.6.6,0,0,1,0-.7,2,2,0,0,1,.36-.4Z" transform="translate(-26.46 -9.75)"/><path class="cls-2" d="M104.58,190.75c-.82,2.28,0,2.6-.66,5.45-.73,3.16-2.06,3.92-4.33,8.6-1.13,2.32-1.91,4.27-2.38,5.51a12.88,12.88,0,0,0,5,6.17c.66.42,5.09,3.27,7.71,1.62,2-1.26,1.83-4.44,3.45-4.63,1-.11,1.51,1,2,.78,1.07-.45-.5-5.79-1.06-10a35.8,35.8,0,0,1,1-14c-.76-2.93-2.75-5.09-4.88-5.23C106.83,184.7,104.71,190.39,104.58,190.75Z" transform="translate(-26.46 -9.75)"/><path class="cls-2" d="M114,199.92a21,21,0,0,0-4.24-1.77,20.51,20.51,0,0,0-4.83-.81,197,197,0,0,1,1.23-40.18c1-7.59,1.74-14.47,6.42-16.68,3.38-1.6,8.68-.77,10.6,2.11.7,1.06.57,1.83.45,6-.16,5,.36,10.17-.59,15.13a52.34,52.34,0,0,1-1.25,5.58c-2.59,9.55-5.93,20.59-7.76,26.58Z" transform="translate(-26.46 -9.75)"/><path class="cls-22" d="M100.46,44a8.38,8.38,0,0,0-.36-7.2c-.49-.79-1-1-1.78-1.73a4.81,4.81,0,0,1-.84-1,4.36,4.36,0,0,1-.2-3.17c.64-2.75-.31-8.88-2.46-12.38-1.84-3-4.64-4.3-7.55-5.53C84.69,11.91,80,9.91,74,11.13c-7,1.43-13.08,6.77-14.25,11.61a32.21,32.21,0,0,1-1.17,5.37,24.16,24.16,0,0,0-1.23,5.06,12.49,12.49,0,0,0,.2,1.93v0h0a7.28,7.28,0,0,1,1.27,4.22c0,.51-.14,1.06-2,4.27s-2,3-2.19,3.77c-.77,2.77.92,5.53,1.53,6.51,2.24,3.65,4.42,2.92,5.74,5.75,1.8,3.83-.61,8.57-.8,8.94-1.56,3-3,3.18-3.72,5.53-.61,2.08.52,4.36,2.21,5.74a16.81,16.81,0,0,0,5.89,2.69,7.17,7.17,0,0,1-2.55-10.88c1.39-1.79,3.64-3,4.47-5.06.77-1.95.06-4.2-1-6a52.9,52.9,0,0,0-3.68-5.12c-4-5.23-4-6.21-4-6.84.31-2.22,2.64-2,3.45-4.6.9-2.88-1.53-4.59-.94-8.25a8.78,8.78,0,0,1,1.82-4s11.23-3.19,14.81-6.26,2.44-4.72,6.27-2a59.14,59.14,0,0,1,8,7.3h0a3.61,3.61,0,0,0-.23,1.11c-.06,1.79.83,3.45,1.58,5.07a9.81,9.81,0,0,1,.83,5.16c-.52,3.06-3.07,3.07-4.08,6.25-1.12,3.52.85,7,1,7.28,1.79,3.06,4,2.6,5.1,5.23,1.16,2.9-.52,6.13-1.1,7.26-2.17,4.18-4.84,3.63-6.3,6.92-1.77,4-.18,10,3.52,11.9.23.12,2.87,1.42,5.14.09,2-1.19,3-4,2.28-7.06l-1.26,3.89a5.57,5.57,0,0,1-4.49-9.07c2-2.5,3.65-2.24,5.53-5.09a9.91,9.91,0,0,0,1.53-6.28c-.22-1.81-.9-2.28-3.57-6.9-3.11-5.36-3-6.18-2.94-6.63C95.3,47.2,98.8,47.68,100.46,44Z" transform="translate(-26.46 -9.75)"/></g></svg>