<svg xmlns="http://www.w3.org/2000/svg" viewBox="0 0 129.8 388.8"><defs><style>.cls-1{isolation:isolate;}.cls-2{fill:#545e8e;}.cls-3{fill:#f4caa4;}.cls-4{fill:#d2daff;}.cls-5{fill:#165d70;}.cls-6,.cls-8{fill:#c6cacc;}.cls-6,.cls-9{mix-blend-mode:multiply;}.cls-7{fill:#685c4b;}.cls-9{fill:none;stroke:#c6cacc;stroke-miterlimit:10;}.cls-10{fill:#685244;}.cls-11{fill:#e0a78d;}.cls-12{fill:#161513;}.cls-13{fill:#42382a;}.cls-14{fill:#6b5134;}.cls-15{fill:#2b221d;}.cls-16{fill:#f1f0f7;}.cls-17{fill:#5d699e;}.cls-18{fill:#a5a7d3;}</style></defs><g class="cls-1"><g id="left_lower_arm" data-name="left lower arm"><path class="cls-2" d="M148.53,124.48l.1,0A136.81,136.81,0,0,0,144,93.9a136.47,136.47,0,0,0-8.17-22.21Q134,69.8,132.23,67.9L118.13,80c2,9.1,4.35,18.58,7.09,28.38q2.88,10.28,6,19.82l.34-.08a8.69,8.69,0,0,0,17-3.61Z" transform="translate(-21.89 -5.36)"/><path class="cls-3" d="M146.52,189.88l-.37-7.44,1.28-16.85-4.67-5.28-7.53,3.2c-.34.62,2,16.68,2,16.68l-1.13,4.27a6.4,6.4,0,0,0-1.31,1.79c-.89,2-2,13.54-1.23,14.62s2.52-1.81,2.52-1.81l1.41-5,1.12,5.74L137.4,209c2,4.51,6.69.89,6.69.89l5-11.56S147.64,193.44,146.52,189.88Z" transform="translate(-21.89 -5.36)"/><path class="cls-2" d="M148.67,126.32q.74,25.77,1.45,51.53a15.81,15.81,0,0,1-9,2.55,16,16,0,0,1-10.06-4.07q.82-21.45,1.66-42.89Z" transform="translate(-21.89 -5.36)"/><path class="cls-4" d="M129.78,179.54c.1-1.45.2-2.91.29-4.36a15.63,15.63,0,0,0,21.62,1.7c-.23,1.18-.45,2.36-.68,3.54a18.85,18.85,0,0,1-8,2.77A19.71,19.71,0,0,1,129.78,179.54Z" transform="translate(-21.89 -5.36)"/><path class="cls-5" d="M106.42,155.41v17.46L95.2,227.18q-3.74,19.37-7.48,38.73c-.08.56-.19,1.11-.32,1.65,0,.08,0,.17-.05.26h0a15.75,15.75,0,0,1-31-4.07c0-.27,0-.54,0-.81h0l.06-.26a15.39,15.39,0,0,1,.89-4.25l20.35-97.13,1.23-5.88Z" transform="translate(-21.89 -5.36)"/><path class="cls-6" d="M84.18,160.13c.14,2.84-21.42,99.43-24.51,113.25a15.65,15.65,0,0,1-3.3-9.64c0-.27,0-.54,0-.81h0l.06-.26a15.39,15.39,0,0,1,.89-4.25l20.35-97.13,3.72-5.82Z" transform="translate(-21.89 -5.36)"/><path class="cls-3" d="M49,319.1c-3.46,4.3-7.75,11.19-7.14,19.6a25.12,25.12,0,0,0,.38,2.75c2.36,13.83,9.24,22.57,7.25,27.78a1.94,1.94,0,0,1-.76,1c-2.48,1.52-8.73-4.55-9.7-5.49-4.1-4-3.27-4.84-7.66-9.58-4-4.31-8.06-7.23-7.55-8,.16-.25.58,0,1.16-.15,3.45-1,2.76-14.61,2.76-14.61s7-17,7.37-20.16,1-6.77,1-6.77Z" transform="translate(-21.89 -5.36)"/><path class="cls-5" d="M86.52,270.1,55,336.08A32.53,32.53,0,0,1,27.13,323a31.88,31.88,0,0,1-2.08-3.15l7.83-10.21q11.91-24.47,23.81-48.91l5,1.56Z" transform="translate(-21.89 -5.36)"/><path class="cls-7" d="M42.22,341.45a19.14,19.14,0,0,1-.17-7.07l-1.39-.79-3.13,5.57H34.24l-2.38-6.36-3.34-2.34-.8,2S21.15,343,22,346.33c.36,1.49.89,2.51,7.87,11,4.17,5.08,6.27,7.64,7.26,8.49,6,5.17,14.24,8.31,15.79,6.43.55-.66.15-1.83-.05-2.4C49.72,361.1,43.53,347.38,42.22,341.45Z" transform="translate(-21.89 -5.36)"/><path class="cls-6" d="M61.66,262.3,35.09,312.24l-8,10.77a31.88,31.88,0,0,1-2.08-3.15l7.83-10.21q11.91-24.47,23.81-48.91Z" transform="translate(-21.89 -5.36)"/><path class="cls-5" d="M139.08,270.07a15.75,15.75,0,0,1-31.24,2.85h0s0-.05,0-.08a15.76,15.76,0,0,1-.26-2.77c0-.43,0-.85.07-1.27q-2.43-50.37-4.84-100.72c-.17-3.36-.33-6.73-.49-10.09l15.84-4.63L133.6,157q2.7,55.74,5.39,111.48A14.7,14.7,0,0,1,139.08,270.07Z" transform="translate(-21.89 -5.36)"/><path class="cls-6" d="M117.63,284.77a15.77,15.77,0,0,1-9.79-11.85h0s0-.05,0-.08a15.76,15.76,0,0,1-.26-2.77c0-.43,0-.85.07-1.27-.19-3.91-2.23-46.37-2.43-50.36-.07-1.55-1.43-29.89-1.5-31.45q.64-2.93,1.31-5.85Q111.32,233,117.63,284.77Z" transform="translate(-21.89 -5.36)"/><path class="cls-8" d="M170.11,234.51" transform="translate(-21.89 -5.36)"/><polyline class="cls-9" points="86.58 161.45 85.09 171.87 81.8 170.87 83.22 164.18"/><path class="cls-3" d="M118.21,341.41c-2.41,3.72-5.62,10.07-4.65,17.48a24.35,24.35,0,0,0,1.56,5.66c4.3,11.93,11.92,19.5,11.46,26.39a2.12,2.12,0,0,1-.69,1.66c-.78.55-2.48.4-10.8-6-4.58-3.52-6.86-5.28-7.66-6.13-2.33-2.48-3.85-4.89-7.66-7.92a8.8,8.8,0,0,1-1.4-1.14c-3.34-4.08,1-13.46,1-13.46s4.19-17.9,4-21.08-.08-6.84-.08-6.84Z" transform="translate(-21.89 -5.36)"/><path class="cls-5" d="M138.83,272.84q-5.54,38.84-11.05,77.66a34.92,34.92,0,0,1-31-7.17,38,38,0,0,1-3.25-3.05q3.57-9,7.15-18,3.6-24.69,7.19-49.4Z" transform="translate(-21.89 -5.36)"/><path class="cls-7" d="M130.15,390.91c-4.47-8.17-12.79-20.72-15-26.36a19.13,19.13,0,0,1-1.3-7.68h-.62v5.22h-4.74l-3.75-5.8-4.28-3.07C99.82,356,99.36,358,99.36,358s-4.8,11.46-3.46,14.66c.6,1.42,1.29,2.34,9.54,9.63,4.93,4.35,7.42,6.54,8.53,7.22,6.74,4.14,15.39,5.91,16.62,3.81C131,392.53,130.44,391.44,130.15,390.91Z" transform="translate(-21.89 -5.36)"/><path class="cls-6" d="M116.15,272.84S108,322.34,107.47,323c-.35.46-6.71,12.61-10.74,20.31a38,38,0,0,1-3.25-3.05q3.57-9,7.15-18,3.6-24.69,7.19-49.4Z" transform="translate(-21.89 -5.36)"/><path class="cls-10" d="M121,19.45s1.89,5.09,1.13,6.14a12.28,12.28,0,0,1-3.17,2.32l-2.69-10Z" transform="translate(-21.89 -5.36)"/><ellipse class="cls-3" cx="86.27" cy="43.18" rx="6.41" ry="8.23" transform="translate(-31.03 52.11) rotate(-35.11)"/><ellipse class="cls-11" cx="119.67" cy="33.28" rx="8.23" ry="6.41" transform="matrix(0.05, -1, 1, 0.05, 58.53, 145.76)"/><rect class="cls-3" x="75.9" y="35.54" width="15.03" height="28.99"/><path class="cls-11" d="M112.82,52.44v4.64a28.76,28.76,0,0,1-15,5.29V49.79h0C98.21,49.78,107.38,51.45,112.82,52.44Z" transform="translate(-21.89 -5.36)"/><path class="cls-3" d="M111.88,11.44c-5.57-3.11-11.3-1.45-13-.94-.32.09-.72.22-1.16.38s-.86.2-1.18.29C94.76,11.68,89,13.32,86,18.93c-3.38,6.2-1.28,13.24.5,19.23,1.67,5.61,3.91,13.15,10.83,17.35,1.1.67,6.53,4,12.34,2.4a12.89,12.89,0,0,0,1.47-.53,10.09,10.09,0,0,0,1.52-.34c5.75-1.77,8.59-7.45,9.16-8.6,3.61-7.25,1.49-14.82-.09-20.46C120,22,118,14.89,111.88,11.44Z" transform="translate(-21.89 -5.36)"/><path class="cls-12" d="M98.77,36c.26,1.23-.11,2.36-.82,2.53s-1.5-.69-1.75-1.92.11-2.36.82-2.53S98.52,34.75,98.77,36Z" transform="translate(-21.89 -5.36)"/><path class="cls-13" d="M91.77,32.94a13,13,0,0,1,5.47-2.75c1.71-.35,2.83-.08,3-.66a1.15,1.15,0,0,0-.61-1.19,2,2,0,0,0-1.38-.07,11.86,11.86,0,0,0-4,1.6,10.31,10.31,0,0,0-3.54,3.93C90.8,33.85,91.11,33.48,91.77,32.94Z" transform="translate(-21.89 -5.36)"/><path class="cls-12" d="M112.46,32.47c.25,1.23,1,2.09,1.75,1.92s1.08-1.31.82-2.54-1-2.09-1.75-1.92S112.2,31.24,112.46,32.47Z" transform="translate(-21.89 -5.36)"/><path class="cls-13" d="M116.34,26.68a12.3,12.3,0,0,0-6,0c-1.7.47-2.6,1.21-3,.77a1.2,1.2,0,0,1,.09-1.36,2.06,2.06,0,0,1,1.21-.68,11.91,11.91,0,0,1,4.23-.37A9.57,9.57,0,0,1,117.61,27,8,8,0,0,1,116.34,26.68Z" transform="translate(-21.89 -5.36)"/><path class="cls-14" d="M106.52,33.28a32.63,32.63,0,0,1,2.74,5.36,7.87,7.87,0,0,1,.49,1.51,2.34,2.34,0,0,1-.38,1.73,2.88,2.88,0,0,1-1.28,1,5.47,5.47,0,0,1-1.51.37,4.67,4.67,0,0,0,2.12-1.8c.4-.76,0-1.51-.37-2.47A31.83,31.83,0,0,1,106.52,33.28Z" transform="translate(-21.89 -5.36)"/><path class="cls-15" d="M102.88,51a10.22,10.22,0,0,0,5.26.44,10.75,10.75,0,0,0,6.49-4.2" transform="translate(-21.89 -5.36)"/><path class="cls-10" d="M88.07,12.72a32.74,32.74,0,0,1,16.67-7.1c3.31-.36,7.09-.7,10.56,1.66a12.55,12.55,0,0,1,4.6,6.13l6.19,5.29a21.8,21.8,0,0,1-3.19,2.07A11.91,11.91,0,0,1,117,21.94c-3.7,0-14.64-.51-24.31.32a11.68,11.68,0,0,1-1.53,4.42,11.93,11.93,0,0,1-3.74,3.92,35.77,35.77,0,0,0,.68,5.61A36.14,36.14,0,0,0,90.62,44l-5.36-7.66A4.07,4.07,0,0,0,82.62,36a4.27,4.27,0,0,0-3.05,3.12c-3.72-6.64-3.78-14.36,0-20A17.45,17.45,0,0,1,88.07,12.72Z" transform="translate(-21.89 -5.36)"/><path class="cls-11" d="M84.18,37.7a3.57,3.57,0,0,0-1.1,2.49,5.94,5.94,0,0,0,.64,2.6,20.54,20.54,0,0,0,1.46,2.45c.54.8,1.15,1.56,1.7,2.42a12.58,12.58,0,0,1-2.31-1.94,10.62,10.62,0,0,1-1.76-2.5,5.46,5.46,0,0,1-.51-3.12A3.13,3.13,0,0,1,84.18,37.7Z" transform="translate(-21.89 -5.36)"/><path class="cls-6" d="M100.54,166.38l-.64,8.8a44,44,0,0,1-24.74-1.94q1.4-6.56,2.78-13.11Z" transform="translate(-21.89 -5.36)"/><path class="cls-3" d="M98.87,62.5c-7.42,2.91-13.57,6.83-19.57,9.12-2.19.84-3.58,2-5,4.85-1.65,3.33-1.94,5.68-1.44,7C77.56,96.41,83,121.6,83.3,135a61.63,61.63,0,0,1-4.44,24.14C81.72,161.33,93.8,170,110.1,168a41.85,41.85,0,0,0,18.9-7.41,331.18,331.18,0,0,0,4.27-35.78,330,330,0,0,0,.07-41.84,41.08,41.08,0,0,0,.51-6.63c0-4.9-1.85-5.94-3.07-7.65-2.56-3.56-6.72-3.23-17.1-3.84A79.5,79.5,0,0,1,98.87,62.5Z" transform="translate(-21.89 -5.36)"/><path class="cls-16" d="M131.31,81.9a24.68,24.68,0,0,1-.25-6.38c.43-4.82,1.17-3.11.43-4.82s-2.67-6.64-12.58-5.76A33.41,33.41,0,0,1,107.57,78.5,47.45,47.45,0,0,1,87.14,67c-2.82,1.1-4.38,4.32-7,5.34-2.2.83-6.36-.2-7.79,2.67-1.65,3.33-.22,7.14.28,8.51C77.32,96.41,82.72,121.6,83.06,135a61.63,61.63,0,0,1-4.44,24.14c2.86,2.16,14.94,10.8,31.25,8.78a41.86,41.86,0,0,0,18.89-7.41A249.28,249.28,0,0,0,133,124.76,248.07,248.07,0,0,0,131.31,81.9Z" transform="translate(-21.89 -5.36)"/><path class="cls-17" d="M98.84,172.26l9-25A198.5,198.5,0,0,0,98,78.5q-2.4-7.22-5.16-13.74A130.52,130.52,0,0,0,79,70.16C75.32,71.82,73.4,72.9,72.33,75c-1.69,3.34-.18,7.21.28,8.51,2,5.64,4.24,18,6.36,44.34q-3.73,17-7.49,34a26.57,26.57,0,0,0,10.22,8.51A27,27,0,0,0,98.84,172.26Z" transform="translate(-21.89 -5.36)"/><path class="cls-18" d="M97.92,58.33q0,1.64,0,3.36.08,3.56.41,6.72l-2.72-1.15-1-4.76Z" transform="translate(-21.89 -5.36)"/><path class="cls-6" d="M111.3,75.9c.49,4.51.88,8,1.06,9.59h0c0,.44.92,20.7,3.75,89.56a35.57,35.57,0,0,0,9.07.64c4.88-.28,6.81-1.08,8.12-2.17a8.67,8.67,0,0,0,1-1l-.37-7.66-9.57-81.19Z" transform="translate(-21.89 -5.36)"/><path class="cls-18" d="M113,59.48c0,1.07,0,2.2,0,3.36,0,1.41.1,2.77.2,4l2.11,1.52,1-4.76Z" transform="translate(-21.89 -5.36)"/><path class="cls-17" d="M135.14,85.31a30.2,30.2,0,0,0,.4-8.74c-.33-3.47-.66-6.94-3.19-9.33-2-1.91-4.46-2.21-8.44-2.7a36.26,36.26,0,0,0-10.47.26c.8,5.25,1.86,13,2.64,22.55,1.18,14.43,1,24.67,1,35.4,0,11.39.08,27.9.68,48.68a41.22,41.22,0,0,0,13.84-2.49,40.39,40.39,0,0,0,7.5-3.65c-1.65-15.74-2.62-29.27-3.21-40C134.63,102.34,134,90.85,135.14,85.31Z" transform="translate(-21.89 -5.36)"/><path class="cls-4" d="M97.92,58.33A12.71,12.71,0,0,0,96.5,64l5.11,12.51h0L99,82.5a65.69,65.69,0,0,1-4.14-8.3c-2-4.83-3-7.29-2-9.44a24.56,24.56,0,0,1,3.37-4.52C96.93,59.43,97.51,58.78,97.92,58.33Z" transform="translate(-21.89 -5.36)"/><path class="cls-4" d="M113,59.48a17.66,17.66,0,0,1,.49,5.32,26.84,26.84,0,0,1-.89,4.81c-.38,1.63-.89,4-1.37,7a6.1,6.1,0,0,0,1.45,1.58,6.18,6.18,0,0,0,2.94,1.19q1.4-7.59,2.78-15.18a8.27,8.27,0,0,0-5.4-4.69Z" transform="translate(-21.89 -5.36)"/><path class="cls-4" d="M93.51,137.47a20.26,20.26,0,0,1-3.16,17.05l2.92.88a30.62,30.62,0,0,0,3.45-18.22Z" transform="translate(-21.89 -5.36)"/><path class="cls-4" d="M130.45,137.63a24.61,24.61,0,0,0-1.28,8.42,22.57,22.57,0,0,0,2,8.81l-2.5.6A35.12,35.12,0,0,1,127,146a37.32,37.32,0,0,1,.8-9Z" transform="translate(-21.89 -5.36)"/><path class="cls-17" d="M74.67,72.34A296.46,296.46,0,0,0,48.46,93.9c-6.37,5.88-12.09,11.69-17.23,17.29a8.62,8.62,0,0,0-2.69,6.27,8.69,8.69,0,0,0,14.7,6.29l0,0q7.71-6.41,15.65-13.54c7.57-6.8,14.63-13.55,21.2-20.17Q77.39,81.21,74.67,72.34Z" transform="translate(-21.89 -5.36)"/><path class="cls-2" d="M67.19,102.64A77.71,77.71,0,0,0,77,93.06c1.64-1.91,3.1-3.8,4.38-5.61" transform="translate(-21.89 -5.36)"/><path class="cls-18" d="M77.31,127.5s-.54,14.23-5.63,16.83l-4.33-10Z" transform="translate(-21.89 -5.36)"/><path class="cls-3" d="M93.11,149.14l-1-.6,0-.09,1.13.1a20,20,0,0,0,.61-2.56,20.35,20.35,0,0,0-.15-7.42c-1.7,0-3.47.08-4.84.13l-5.42-1.16s-13.25-9.37-14-9.35l-6.26,5.28L65.89,140l15.61,6.46.75.43a6.54,6.54,0,0,0,1.49,2c.91.77,4.57,2.37,7.89,3.6A19.68,19.68,0,0,0,93.11,149.14Z" transform="translate(-21.89 -5.36)"/><path class="cls-17" d="M33.93,125.5l34.89,17.93a18.66,18.66,0,0,1,1.58-10.59,20.08,20.08,0,0,1,4.39-6L42.63,110.05Z" transform="translate(-21.89 -5.36)"/><path class="cls-4" d="M71.68,144.33a19.74,19.74,0,0,1,1.7-11c1.07-2.23,3.51-6.07,3.89-5.92,0,0,0,.06,0,.07A15.08,15.08,0,0,1,74.16,126a21.07,21.07,0,0,0-5,18.86Z" transform="translate(-21.89 -5.36)"/><path class="cls-2" d="M54.33,116.16S49,111.83,46.44,112" transform="translate(-21.89 -5.36)"/></g></g></svg>