<svg xmlns="http://www.w3.org/2000/svg" viewBox="0 0 156.35 381.29"><defs><style>.cls-1{fill:#fcd9c0;}.cls-2{fill:#f2908b;}.cls-3,.cls-7{fill:none;stroke-miterlimit:10;}.cls-3{stroke:#c96a67;}.cls-4{fill:#efbca3;}.cls-5{fill:#354f59;}.cls-6{fill:#773f44;}.cls-7{stroke:#21343a;}.cls-8{fill:#995f56;}.cls-9{fill:#161513;}.cls-10{fill:#774843;}.cls-11{fill:#b75c62;}</style></defs><g id="left_lower_arm" data-name="left lower arm"><path class="cls-1" d="M92.06,78.77A211,211,0,0,1,127.24,96a204.19,204.19,0,0,1,19.49,13.54,6.87,6.87,0,0,1,1.56,1.24h0c.2.22.4.45.59.7,2.42,3.35,1.42,8.21-2.24,10.86a8.18,8.18,0,0,1-9,.58h0q-13.16-7.55-26.3-15.1L77.78,89.11Z" transform="translate(-6.5 -19.86)"/><path class="cls-2" d="M114.31,88.45Q109,85.74,103.59,83l-6.37-3.1a13.31,13.31,0,0,0-3.7-1.78h0a13.42,13.42,0,0,0-1.9-.43c-6.46-.89-13.15,3.35-14.37,10-1.28,6.94,4,13.61,10.88,14.61a13,13,0,0,0,6.58-.78c.49.44,1,.89,1.53,1.33a48.18,48.18,0,0,0,5.9,4.22c1.77-.71,7.54-3.29,10.54-9.3A16.72,16.72,0,0,0,114.31,88.45Z" transform="translate(-6.5 -19.86)"/><path class="cls-3" d="M102.11,107.05c1.65-.75,13.19-4.18,12.2-18.6" transform="translate(-6.5 -19.86)"/><path class="cls-1" d="M118.1,54.18c-3.75-16.36-4.9-22.68-5-24.62,0-.26,0-.78-.15-.83-.6-.27-2.31,1.8-1.44,9a7.58,7.58,0,0,1,.15,2.46c-.09,0-3.15-11.93-4.76-13.8-.11-.13-.45-.53-.78-.44-.56.16-.85,1.73-.82,1.66s-3.12-4.28-1.66,2,2.15,8.45,1.79,9.92c0,.06,0,.13-.08.14-.41.07-1.64-4.87-2.74-9.68-.34-.27-1.35-1-2-.69s-.51,1.44-.47,2.23c.27,4.23,4.63,13.69,2.77,15.86a1.22,1.22,0,0,1-.74.44c-1.25.12-1.72-2.71-4.1-4.63-1.44-1.15-3.5-1.92-4-1.38-.67.73,1.52,3.8,3.15,6.08a47.33,47.33,0,0,0,3.47,4.32,41.36,41.36,0,0,0,8.41,7c2.22,1.39,3,1.58,3.78,1.56a5.79,5.79,0,0,0,5-4A5.4,5.4,0,0,0,118.1,54.18Z" transform="translate(-6.5 -19.86)"/><path class="cls-1" d="M143,91.16c-.83-1.52-2.94-5.6-13.69-20.75-4.37-6.17-8-11.18-10.55-14.54a4.71,4.71,0,0,0-6.14-2.24,4.83,4.83,0,0,0-2.15,6.75c.09.14.21.27.31.4l-.07,0a140.57,140.57,0,0,1,11.72,26.82c2.19,6.91,5.93,20.67,14.55,31.6,1.55,2,4,4.7,7.11,4.62a7.48,7.48,0,0,0,7.29-7.67,6.84,6.84,0,0,0-.09-.91h0a7.67,7.67,0,0,0-.54-1.9A73.36,73.36,0,0,0,143,91.16Z" transform="translate(-6.5 -19.86)"/><path class="cls-4" d="M122.73,88.45A89.68,89.68,0,0,1,126.16,97c.5,1.45,1,2.9,1.46,4.36l1.36,4.4a29.14,29.14,0,0,1-2.1-4.13c-.6-1.41-1.14-2.85-1.66-4.3A65.62,65.62,0,0,1,122.73,88.45Z" transform="translate(-6.5 -19.86)"/><path class="cls-5" d="M79.73,161.7a221.18,221.18,0,0,1,8.36,59.43,221,221,0,0,1-5.37,49.1,12.56,12.56,0,0,1-.45,3.46h0a12.47,12.47,0,0,1-.51,1.53c-2.83,6.78-11,10.16-18.19,7.55a13.08,13.08,0,0,1-8.91-12.29q-.51-26.25-1-52.5-1-33.22-2.09-66.45Z" transform="translate(-6.5 -19.86)"/><path class="cls-1" d="M72.7,366.45c2.72-29.66,4.75-52.11,5.9-64.16.27-2.83.85-8.89,1-17,.15-7.13-.09-12.89-.29-16.43a10.65,10.65,0,0,0-.06-1.45,10.79,10.79,0,0,0-.26-1.47h0a10,10,0,0,0-.39-1.29,11.07,11.07,0,0,0-14.27-6.46c-3.56,1.34-5.54,5.07-7.16,10.3-2.17,7-5.2,21.31-1.33,44.24l1.68,28.6L59,366.21Z" transform="translate(-6.5 -19.86)"/><path class="cls-5" d="M83.14,282c-.31-3-.51-5.9-.62-8.63h0a24.91,24.91,0,0,0-2.21-9C79,261.48,76,255,70.94,254.11c-7-1.19-15.18,8.7-16,17.35,0,.46-.06.85-.06,1.15h-.06l-1.2,20.08s-.27,1.43,9.07,2.35S84.34,291,84.34,291C83.87,288.16,83.46,285.16,83.14,282Z" transform="translate(-6.5 -19.86)"/><path class="cls-1" d="M73.88,351.33c-3.09,12.41-.81,19.28,1.87,23.27,3.39,5,14.17,15.56,20.27,22.59.39.46,1.18,1.4.92,2.22-.76,2.32-9.58,2.41-17-.22-1.23-.43-4.13-2-9.86-5.25-9.61-5.38-10.48-6.14-11.36-7.4-2-2.84.28-15.06.28-15.06s.08-4.59.06-9.57c0-5.28-.4-9.83-.57-11.89-.19-2.45-.48-5.4-.9-8.72Z" transform="translate(-6.5 -19.86)"/><path class="cls-6" d="M96,397.19c-6.1-7-16.88-17.54-20.27-22.59a19.48,19.48,0,0,1-3-8.14h0l-.23,3.41a65.43,65.43,0,0,1-7.83,1.37c-1.87,0-5.63-5-5.63-5,0,3-.06,5.27-.06,5.27s-2.27,12.22-.28,15.06c.88,1.26,1.75,2,11.36,7.4,5.73,3.21,8.63,4.82,9.86,5.25,7.47,2.63,16.29,2.54,17,.22C97.2,398.59,96.41,397.65,96,397.19Z" transform="translate(-6.5 -19.86)"/><path class="cls-5" d="M80.43,163.51a103.36,103.36,0,0,0,2,27c2.84,13.46,7.41,21.41,15.43,38.43,4.25,9,10.13,22,16.66,38.12a12.49,12.49,0,0,0,1.59,3.13h0a15,15,0,0,0,1,1.29,14.69,14.69,0,0,0,19.78,1.48,12.68,12.68,0,0,0,4.24-14.38l-16.92-49.95-20.64-63.47Z" transform="translate(-6.5 -19.86)"/><path class="cls-7" d="M91.74,179.81,95,202.23s-5.62,2.38-8.17,0-.89-6.13-.89-6.13" transform="translate(-6.5 -19.86)"/><path class="cls-1" d="M124.53,359.72a252.63,252.63,0,0,1-5-91.52,10.72,10.72,0,0,1,.34-2.91h0a12.74,12.74,0,0,1,.4-1.29,11.08,11.08,0,0,1,14.33-6.33c4.08,1.58,5.9,6.26,7.07,10.36,5.62,19.82,1.24,40.78.9,42.44-2.92,14-5.57,33.88-4.51,60.08Z" transform="translate(-6.5 -19.86)"/><path class="cls-5" d="M144,270.07c-.81-2.92-1.49-5.73-2.06-8.4h0a13.83,13.83,0,0,0-27.5,2.76c0,.39.08.77.13,1.15h-.05l2.2,20s0,1.45,9.34.79,20.65-7.68,20.65-7.68C145.72,276,144.81,273.14,144,270.07Z" transform="translate(-6.5 -19.86)"/><path class="cls-1" d="M138.12,349.3c-3,13.78-.34,21.27,3,25.62s15,15.86,20.73,22.17c.41.44,1.22,1.37,1,2.19-.71,2.33-9.53,2.61-17.05.14-1.24-.41-4.16-2-10-5.05-9.71-5.18-10.6-5.91-11.5-7.15-2.05-2.81,0-15.07,0-15.07s-.07-18.38-1-21.44-1.66-6.64-1.66-6.64Z" transform="translate(-6.5 -19.86)"/><polygon class="cls-6" points="131.6 348.06 131.6 348.06 131.6 348.07 131.6 348.06"/><path class="cls-6" d="M161.84,397.09c-6.24-6.91-17.24-17.2-20.73-22.17a18.81,18.81,0,0,1-2.66-5.63c.25,1.2.42,2.84-.32,3.4-1.23.93-4.86,1.5-6.22,1.58s-7.7-6.3-7.7-6.3c0,2.47,0,4.18,0,4.18s-2,12.26,0,15.07c.9,1.24,1.79,2,11.5,7.15,5.81,3.09,8.73,4.64,10,5.05,7.52,2.47,16.34,2.19,17.05-.14C163.06,398.46,162.25,397.53,161.84,397.09Z" transform="translate(-6.5 -19.86)"/><ellipse class="cls-1" cx="47.27" cy="56.27" rx="6.41" ry="8.23" transform="translate(-30.4 18.05) rotate(-35.5)"/><ellipse class="cls-4" cx="80.24" cy="45.91" rx="8.23" ry="6.41" transform="translate(24.38 104.21) rotate(-87.51)"/><rect class="cls-1" x="50.43" y="34.36" width="15.03" height="28.99"/><path class="cls-4" d="M72,64.91v4.64a28.76,28.76,0,0,1-15,5.29V62.26h0C57.35,62.25,66.52,63.92,72,64.91Z" transform="translate(-6.5 -19.86)"/><path class="cls-1" d="M70.85,24.63c-5.58-3.08-11.3-1.38-13-.86-.32.09-.72.22-1.16.39s-.85.21-1.18.3C53.73,25,48,26.66,45,32.29c-3.32,6.22-1.18,13.25.64,19.22,1.71,5.61,4,13.13,11,17.28,1.1.66,6.55,3.92,12.35,2.32a12.28,12.28,0,0,0,1.47-.54,11.52,11.52,0,0,0,1.52-.35c5.74-1.81,8.53-7.52,9.1-8.67,3.56-7.27,1.39-14.83-.23-20.46C79.07,35.09,77,28,70.85,24.63Z" transform="translate(-6.5 -19.86)"/><path class="cls-8" d="M45.92,48.5c.42-4.25,1.6-9.29,5.1-10.9,2.49-1.14,4,.45,8.44.83,6.27.53,11.69-1,18.32-2.87,1.66-.46,3-.9,3.88-1.19a19.41,19.41,0,0,0-8.9-9.67,18,18,0,0,0-9.7-1.87c-7.82.71-19,4.45-20.91,12.77-.66,2.82-.66,7.88,1.25,10.78A17.25,17.25,0,0,1,44.9,49a25.81,25.81,0,0,1,1.4,4.64C46.37,53.64,46.35,52.68,45.92,48.5Z" transform="translate(-6.5 -19.86)"/><path class="cls-8" d="M81.66,31.82c-2.13-5.3-6.47-7.69-9.19-9.19s-6.13-3.39-10-2.56c-2.65.57-4.3,2.2-7.49,5.45-3.51,3.57-9.68,11-7.83,13.28a.92.92,0,0,0,.13.14c.52.43,2.21.72,13.66,0,3-.19,4.54-.28,5.1-.34,7.18-.85,9.23-2.35,11.63-1.26,1.44.65,3.11,2.31,4,6.75A17.24,17.24,0,0,0,81.66,31.82Z" transform="translate(-6.5 -19.86)"/><path class="cls-9" d="M50.48,45.84" transform="translate(-6.5 -19.86)"/><path class="cls-4" d="M44.78,52A7.2,7.2,0,0,0,44,54.52,5.58,5.58,0,0,0,45.64,59a6.78,6.78,0,0,0,2.14,1.49,4.32,4.32,0,0,1-2.66-.9,4.93,4.93,0,0,1-1.84-5.25A4.34,4.34,0,0,1,44.78,52Z" transform="translate(-6.5 -19.86)"/><path class="cls-9" d="M57.8,51.81a2.39,2.39,0,0,1,.94.19,2.47,2.47,0,0,0,0-1c-.19-1.1-1-1.88-1.88-1.73a1.83,1.83,0,0,0-1.2,2.25,2.25,2.25,0,0,0,.41,1A2.27,2.27,0,0,1,57.8,51.81Z" transform="translate(-6.5 -19.86)"/><path class="cls-9" d="M74.22,49.43a2.36,2.36,0,0,1,1.68-.7,2.32,2.32,0,0,1,.95.21,2.37,2.37,0,0,0,0-1,1.61,1.61,0,1,0-3.07.52A2.48,2.48,0,0,0,74.22,49.43Z" transform="translate(-6.5 -19.86)"/><path class="cls-9" d="M64.34,51.06a23.88,23.88,0,0,1,3.19,4.15,4.44,4.44,0,0,1,.93,2.65,1.9,1.9,0,0,1-1.95,1.81,1.82,1.82,0,0,0,1.17-1.82,5.17,5.17,0,0,0-1-2.11A24.4,24.4,0,0,1,64.34,51.06Z" transform="translate(-6.5 -19.86)"/><path class="cls-9" d="M63.06,64.81a26.79,26.79,0,0,0,4.63-1.14A21.34,21.34,0,0,0,72,61.58a7.46,7.46,0,0,1-3.94,3A7.88,7.88,0,0,1,63.06,64.81Z" transform="translate(-6.5 -19.86)"/><path class="cls-9" d="M62.78,64a.7.7,0,0,1,.55.79.68.68,0,0,1-.71.64,2.1,2.1,0,0,0,.22-.7A2,2,0,0,0,62.78,64Z" transform="translate(-6.5 -19.86)"/><path class="cls-10" d="M60,45a.82.82,0,0,0-.36-1,2.11,2.11,0,0,0-1.05-.28A11.54,11.54,0,0,0,51.14,46a6.6,6.6,0,0,0-1.48,1.27c-.67.82-1,1.76-.91,1.85s.56-.75,1.69-1.4a14.85,14.85,0,0,1,2.08-.74c.75-.26,1.51-.5,2.26-.72A48.45,48.45,0,0,1,60,45Z" transform="translate(-6.5 -19.86)"/><path class="cls-10" d="M69.57,43.32a.92.92,0,0,1,0-1,1.71,1.71,0,0,1,.78-.58,8.88,8.88,0,0,1,6.72-.22,5.67,5.67,0,0,1,1.6.75c.8.56,1.4,1.35,1.32,1.47s-.7-.54-1.82-.8a10.86,10.86,0,0,0-1.93-.06c-.69,0-1.38,0-2.07,0A37.29,37.29,0,0,0,69.57,43.32Z" transform="translate(-6.5 -19.86)"/><path class="cls-1" d="M55.73,79.41a42.71,42.71,0,0,0-11.54,9.9c-2.28,2.81-4.75,5.86-5.59,9.23-2.43,9.71,9.87,17.33,16.69,29.33,4.31,7.56,8.22,20,4.09,40.46a92.79,92.79,0,0,0,48.13-6.25c-17.23-21.41-18.08-36.5-17.75-42.9,1.12-21.27,3.83-28.34,3.83-28.34-.11-1.65-.47-3.32-1.47-3.68-1.91-.69-4.51,4-6,3.38-1.91-.77,1.12-8.56-1.94-10.8-1.79-1.31-4,.63-8.41-.86A18.23,18.23,0,0,1,72,77.09Z" transform="translate(-6.5 -19.86)"/><path class="cls-2" d="M100.64,121.93c.28-9.68-1.25-19.33-1.53-29-.19-6.67-.42-10.47-3-13.23-5.11-5.45-15.73-2.46-20.36-.82,1.2,1.51,2.28,3.49,1.92,5.45-.87,4.76-10,8.16-15.9,4.61-4.52-2.7-5.46-8.35-5.62-9.38a104.66,104.66,0,0,1-14.73,6.92c-2.31.86-3.36,1.16-4.26,2.33C34,93,38.27,101.19,41,108.24c1.42,3.65,3.91,12.57,6,30.88,1.21,10.51,2.53,23.75,3.58,39.2,3.46,2,17.22,9.45,34.72,5.37A49.75,49.75,0,0,0,111.88,167C102.16,146.77,100.35,132,100.64,121.93Z" transform="translate(-6.5 -19.86)"/><path class="cls-3" d="M56.14,79.56s.68,7.09,5.83,9.76c4.86,2.52,10.77,1.28,13.69-1.78.61-.63,2.21-2.3,2.06-4.33a10.14,10.14,0,0,0-2-4.33h0" transform="translate(-6.5 -19.86)"/><path class="cls-11" d="M20.71,114.43s4.53,17.3,22,13.81l-5.49-19Z" transform="translate(-6.5 -19.86)"/><path class="cls-1" d="M36.45,98.64a204.62,204.62,0,0,0-20.52,34.59,189.05,189.05,0,0,0-8.74,22.4,6.15,6.15,0,0,0-.61,1.92h0a6.84,6.84,0,0,0-.08.91c0,4.14,4.09,7.49,9.13,7.49,3.89,0,7.2-2,8.52-4.81Q31.08,147.31,38,133.48l0-.06a78.9,78.9,0,0,0,6.33-18c1.12-4.23,4-10.09,11.72-16.75Z" transform="translate(-6.5 -19.86)"/><path class="cls-2" d="M60,99.46a13.6,13.6,0,0,0-13.6-13.6,13.44,13.44,0,0,0-5.67,1.25,16.34,16.34,0,0,0-5.07,2c-2.67,1.61-4.78,4-9.32,13-1.55,3.1-3.54,7.26-5.63,12.31a21.15,21.15,0,0,1,14.76,3.82,20.84,20.84,0,0,1,7.26,10q2.4-7.62,4.79-15.24A13.59,13.59,0,0,0,60,99.46Z" transform="translate(-6.5 -19.86)"/><path class="cls-3" d="M20.71,114.43s13.55-4.15,22,13.81" transform="translate(-6.5 -19.86)"/><path class="cls-1" d="M17.42,172.69a46.48,46.48,0,0,0,4.49,3.22c8.05,5.21,17.66,11,22.87,14.16l1.46,2a8.81,8.81,0,0,0,.81,2.77c1.33,2.57,12.31,13.63,14,13.9s.12-3.93.12-3.93l-4-5.69,6.74,4,8.43,9.19c6.16,2.07,6.12-5.45,6.12-5.45l-7.88-14.77s-6.13-2.87-10.65-4.93l-6.39-1.71A169,169,0,0,0,27.4,156.75c-7.52-6.54-12.39-9.53-15.65-7.85-3,1.53-5.64,7.53-4.37,12.5C7.78,163,8.93,166.13,17.42,172.69Z" transform="translate(-6.5 -19.86)"/></g></svg>