<svg xmlns="http://www.w3.org/2000/svg" viewBox="0 0 123.17 374.52"><defs><style>.cls-1{fill:#f4d3b5;}.cls-2{fill:#d8eff6;}.cls-3{fill:#171b59;}.cls-4{fill:#001230;}.cls-5{fill:#fcd9c0;}.cls-6{fill:none;stroke:#0d103f;stroke-miterlimit:10;}.cls-7{fill:#cc9a6d;}.cls-8{fill:#eab892;}.cls-9{fill:#ddb357;}.cls-10{fill:#d3a976;}.cls-11{fill:#080700;}.cls-12{fill:#3f2a1c;}.cls-13{fill:#f5ffea;}.cls-14{fill:#ea9b78;}.cls-15{fill:#826e5d;}.cls-16{fill:#bcd0e2;}.cls-17{fill:#8d9cb7;}</style></defs><g id="left_lower_arm" data-name="left lower arm"><path class="cls-1" d="M-16.51,192.32" transform="translate(-19.54 -13.23)"/><path class="cls-2" d="M157.79,116.91" transform="translate(-19.54 -13.23)"/><path class="cls-3" d="M89.86,256.38A15.77,15.77,0,0,1,73.6,269.77a16,16,0,0,1-12.71-8.21c1.83-46,3.21-79.5,3.37-83.65A65.56,65.56,0,0,1,65,170c.13-.91.28-1.84.46-2.79,1.71-9.68,4.72-20.87,5.08-22.19l0-.13s4.95,2.93,16,4.47h0c3.61,2,6.82,4.8,8.32,8.85a38.83,38.83,0,0,1,1.72,18.07C95,184.81,92.86,214.49,89.86,256.38Z" transform="translate(-19.54 -13.23)"/><path class="cls-4" d="M66.4,337.92c3.09,12.41.8,19.28-1.87,23.27-3.39,5-14.17,15.55-20.27,22.59-.39.45-1.19,1.4-.92,2.22.76,2.31,9.58,2.4,17-.22,1.23-.43,4.12-2,9.86-5.26,9.61-5.38,10.47-6.13,11.35-7.39,2-2.85-.28-15.06-.28-15.06s-.07-4.6,0-9.58c0-5.28.4-9.82.56-11.88.2-2.46.48-5.4.91-8.72Q74.57,332.9,66.4,337.92Z" transform="translate(-19.54 -13.23)"/><path class="cls-5" d="M70.13,347.89c0,.23.06.46.08.7a25.73,25.73,0,0,0,4.62.93c.37-.93,1-2.27,1.94-2.14,1.19.17,2.72,1.16,3.32.92a10.92,10.92,0,0,1,1.19-.43c0-5,.4-9.29.55-11.26.2-2.46.48-5.4.91-8.72q-8.17,5-16.34,10a50.57,50.57,0,0,1,1.33,7.69C68.64,346,70,346.91,70.13,347.89Z" transform="translate(-19.54 -13.23)"/><path class="cls-3" d="M60.89,261.56C60.59,253,67,246,74.69,245.51c6.59-.44,13,4,15.17,10.87q-3.47,41.89-6.94,83.8a12.32,12.32,0,0,1-7.55,4.62c-5.92.85-10-4-10.55-4.62Z" transform="translate(-19.54 -13.23)"/><path class="cls-3" d="M142.33,258.34c2,7.37-4.12,14.52-11.76,15.71-8,1.24-16.49-4.2-16.44-12.19L87.2,178.63,83.1,166S88.94,154,97.33,147.19l6.19-2.08c4.53,8.2,8.91,16.89,13,26.08A339,339,0,0,1,142.33,258.34Z" transform="translate(-19.54 -13.23)"/><path class="cls-6" d="M89.59,184.31a5.62,5.62,0,0,0,2.7,2.89,5.72,5.72,0,0,0,5.75-.67c-.26-1.77-.51-3.58-.72-5.42a164.69,164.69,0,0,1-1.12-16.56" transform="translate(-19.54 -13.23)"/><path class="cls-3" d="M142.33,258.34c2,7.37-4.12,14.52-11.76,15.71-8,1.24-16.49-4.2-16.44-12.19L87.2,178.63,83.1,166S88.94,154,97.33,147.19l6.19-2.08c4.53,8.2,8.91,16.89,13,26.08A339,339,0,0,1,142.33,258.34Z" transform="translate(-19.54 -13.23)"/><path class="cls-6" d="M89.59,184.31a5.62,5.62,0,0,0,2.7,2.89,5.72,5.72,0,0,0,5.75-.67c-.26-1.77-.51-3.58-.72-5.42a164.69,164.69,0,0,1-1.12-16.56" transform="translate(-19.54 -13.23)"/><path class="cls-4" d="M122.13,331.54c-8.34,11.36-9,19.28-7.72,24.61,1.23,5.17,7.27,20.61,9.9,28.69.19.57.56,1.75,0,2.4-1.59,1.84-9.76-1.5-15.62-6.82-1-.88-3-3.49-7.05-8.67-6.76-8.69-7.27-9.73-7.59-11.23-.73-3.39,6.11-13.77,6.11-13.77s7.43-16.81,7.86-20,1.19-6.73,1.19-6.73Z" transform="translate(-19.54 -13.23)"/><path class="cls-5" d="M105.53,338.7c.85.51,3.44,2.13,3.77,3a2.09,2.09,0,0,1,.09.73,25.2,25.2,0,0,0,4.7,2c.15-.52.16-1.13.89-1.07l.56,0a47.74,47.74,0,0,1,6.59-11.79L109.2,320.05s-.75,3.57-1.19,6.73c-.23,1.67-2.4,7.13-4.41,11.93A2.31,2.31,0,0,1,105.53,338.7Z" transform="translate(-19.54 -13.23)"/><path class="cls-3" d="M114.12,262.94c.34-1,2.7-7.56,9.09-9.83,6.68-2.38,15.06.9,19.49,8.41l-23.25,77.57a14.51,14.51,0,0,1-11.29-1.1,16,16,0,0,1-6.47-6.95Q107.9,297,114.12,262.94Z" transform="translate(-19.54 -13.23)"/><path class="cls-7" d="M78.64,15.47c-3-1.14-13.52-4.67-21.79.51C47.19,22,45.68,36.77,46.47,44.89c.75,7.78,4.09,11,2.17,18.52-1.34,5.28-5,11.15-3.75,12.09a10.37,10.37,0,0,0,2.63,0,25.43,25.43,0,0,0,10,1.27,25.26,25.26,0,0,0,7-1.38,25,25,0,0,0,3.3-1.45l.35-.19c6.58-3.63,22.6-5,22.6-5,3.22-.28,6-.45,8.38-2.56a9.49,9.49,0,0,0,2.22-3.06c-1-.75-2.31-1.83-3.87-3.21-1.16-1-2-1.86-2.17-2-3.1-3,.93-13.73-.35-23.1C94.68,32.36,92.48,18,84.09,15.48A10.2,10.2,0,0,0,78.64,15.47Z" transform="translate(-19.54 -13.23)"/><ellipse class="cls-1" cx="56.11" cy="45.19" rx="6.41" ry="8.23" transform="translate(-33.46 15.03) rotate(-25.26)"/><ellipse class="cls-1" cx="89.36" cy="41.21" rx="8.23" ry="6.41" transform="translate(9.93 106.06) rotate(-77.27)"/><rect class="cls-1" x="46.96" y="32.88" width="15.03" height="28.99"/><path class="cls-8" d="M81.53,59.72v3.11a15.55,15.55,0,0,1-7.62,4.08,15.38,15.38,0,0,1-7.41-.25V59.72Z" transform="translate(-19.54 -13.23)"/><path class="cls-1" d="M84.94,18.24c-5-4-10.88-3.36-12.68-3.16-.33,0-.75.09-1.21.17s-.88.06-1.21.09c-1.81.2-7.74.84-11.7,5.84-4.35,5.5-3.67,12.72-2.79,19C56,44.89,57.13,53,63.7,58.74c1.86,1.64,5.71,5,11.1,4.9,6.49-.16,10.71-5.32,12.14-7.07,5.77-7,5.18-15.67,4.86-20.36C91.4,30.34,90.55,22.8,84.94,18.24Z" transform="translate(-19.54 -13.23)"/><path class="cls-2" d="M66.5,60.69" transform="translate(-19.54 -13.23)"/><path class="cls-9" d="M57.23,51c0,.65-.09,1.26-.15,1.86A7.41,7.41,0,0,0,57,54.47c0,.1,0,.17,0,.14s-.08,0,0,0a2.41,2.41,0,0,0,.68-.24A1.84,1.84,0,0,0,58.58,53a1.67,1.67,0,0,1-.38,2,2.48,2.48,0,0,1-1,.55.92.92,0,0,1-.85-.2,1.14,1.14,0,0,1-.35-.68,4.29,4.29,0,0,1,.3-2A5.84,5.84,0,0,1,57.23,51Z" transform="translate(-19.54 -13.23)"/><path class="cls-8" d="M90.07,35.1a5.77,5.77,0,0,1,3.15,5.57A6,6,0,0,1,92,43.85a5.28,5.28,0,0,1-2.68,1.92,8,8,0,0,0,2-2.35,6.79,6.79,0,0,0,.85-2.82,6.67,6.67,0,0,0-.46-2.91A8,8,0,0,0,90.07,35.1Z" transform="translate(-19.54 -13.23)"/><path class="cls-9" d="M92.87,46.11a6,6,0,0,1,.7,1.58,6.1,6.1,0,0,1,.25,1.74,3.32,3.32,0,0,1-.07.5.93.93,0,0,1-.45.65.7.7,0,0,1-.54.06l-.26-.11a1.6,1.6,0,0,1-.42-.3,2.3,2.3,0,0,1-.68-1.68,4.65,4.65,0,0,0,1.15,1.06l.29.12.14,0a.23.23,0,0,0-.14,0c-.12.08,0,.05,0,0a1.51,1.51,0,0,0,0-.32c0-.49,0-1,0-1.58A10.94,10.94,0,0,1,92.87,46.11Z" transform="translate(-19.54 -13.23)"/><path class="cls-8" d="M53.05,39.61a7.82,7.82,0,0,0-1.23,2.84,6.82,6.82,0,0,0,0,2.95A6.6,6.6,0,0,0,53.16,48a7.83,7.83,0,0,0,2.38,2,5.34,5.34,0,0,1-2.95-1.44,6.06,6.06,0,0,1-1.72-2.94A5.79,5.79,0,0,1,53.05,39.61Z" transform="translate(-19.54 -13.23)"/><path class="cls-7" d="M56.13,36s-3.69-11.76-1.06-14.55a26,26,0,0,1,14.21-7.54c2.2-.07,1.75.4,8.5,1,4.83.4,6,.24,7.67,1.26,2.28,1.41,2.9,3.84,4.42,6.64,1,1.87,2.38,9.43,2.38,9.43-.2.48-.42,1-.65,1.46-.48,1-1,1.9-1.47,2.72a38.4,38.4,0,0,0,.08,8.69c.68,5.49,2.35,9.07,2.05,9.19s-2.92-3.79-4-8.86c-.76-3.65-.82-8.21-1.21-8.2h0c-1.16-3.53-1.61-4.73-1.61-4.73-1.15-3-1.73-4.53-2.76-5.39a2.84,2.84,0,0,0-.62-.43c-1.19-.6-2.08,0-3.26-.37-.54-.17-.48-.34-1.4-.95a13.48,13.48,0,0,0-5.33-2,10,10,0,0,0-2-.22c-3.07,0-5.79-.66-8,2.48S56.13,36,56.13,36Z" transform="translate(-19.54 -13.23)"/><path class="cls-10" d="M57.91,42.3c-2,10.3-2.13,11.18-2.26,13a59.7,59.7,0,0,0,1,16,35.7,35.7,0,0,1-2.89-5.85c-.45-1.16-.42-4.08-2.08-7.87S50.4,50,51.22,43.33s2.29-18.44,10.22-21.62c7.12-2.86,15.24,2.87,16.68,3.91-1.61-.66-10.21-4.07-15.49,0C60.85,27,60.54,28.67,57.91,42.3Z" transform="translate(-19.54 -13.23)"/><path class="cls-10" d="M79.16,26.38a11.42,11.42,0,0,1,7,8.11c.89,3.42.57,7,.55,10.47s.31,7.15,2.32,10.2c1.17,1.76,2.84,3.25,4.06,5s1.93,3.94,1,5.8c2.38-2.07,2-5.51.71-8.18s-3.48-5.05-4.35-7.86c-1.65-5.25,1.45-11-.3-16.21-1.47-4.42-6.65-7.71-12-7.64" transform="translate(-19.54 -13.23)"/><ellipse class="cls-11" cx="64.91" cy="39.82" rx="1.38" ry="1.81" transform="translate(-21.39 -10.06) rotate(-2.76)"/><ellipse class="cls-11" cx="81.13" cy="39.04" rx="1.38" ry="1.81" transform="translate(-21.33 -9.28) rotate(-2.76)"/><path class="cls-12" d="M73,40.13a15.88,15.88,0,0,0,.73,2.59,10.53,10.53,0,0,0,.55,1.19,3.42,3.42,0,0,0,.61,1,8.08,8.08,0,0,0,1,.73,1.31,1.31,0,0,1,.6.84,1.65,1.65,0,0,1,0,.47,1.82,1.82,0,0,1-.19.42,1.36,1.36,0,0,1-.6.61,2.53,2.53,0,0,1-.73.25A2.43,2.43,0,0,1,73.57,48a3.28,3.28,0,0,0,1.28-.24,2.2,2.2,0,0,0,.51-.32.83.83,0,0,0,.27-.42c0-.07.06-.17.05-.21a.8.8,0,0,0,0-.22c0,.07-.09-.08-.27-.17a6.68,6.68,0,0,1-1.21-.81,4,4,0,0,1-.77-1.32A8.3,8.3,0,0,1,73,42.94,6.34,6.34,0,0,1,73,40.13Z" transform="translate(-19.54 -13.23)"/><path class="cls-13" d="M70,54.53a27.23,27.23,0,0,0,5-.5,27.82,27.82,0,0,0,5.19-1.57,6.39,6.39,0,0,1-.73,1.42,7.27,7.27,0,0,1-2,1.88c-.51.33-3.14,2-5.39,1.17A3.47,3.47,0,0,1,70,54.53Z" transform="translate(-19.54 -13.23)"/><path class="cls-14" d="M68.52,54.05a27.25,27.25,0,0,0,6.35-.48A31.23,31.23,0,0,0,81,51.68a11.94,11.94,0,0,1-5.9,2.87A11.56,11.56,0,0,1,68.52,54.05Z" transform="translate(-19.54 -13.23)"/><path class="cls-14" d="M69.68,54.41a4.32,4.32,0,0,0,2.49,1.88,5.67,5.67,0,0,0,3,0,6.35,6.35,0,0,0,2.71-1.43,29.05,29.05,0,0,0,2.25-2.41,9.65,9.65,0,0,1-1.7,3,5.94,5.94,0,0,1-3,1.85A5.55,5.55,0,0,1,71.89,57,3.69,3.69,0,0,1,69.68,54.41Z" transform="translate(-19.54 -13.23)"/><path class="cls-15" d="M58.39,37.17a8.69,8.69,0,0,1,2.49-1.77,7.48,7.48,0,0,1,1.69-.56,10.13,10.13,0,0,1,4.19.1c.58.16,1.13.39,1.34.07A1.22,1.22,0,0,0,68,33.9a1.63,1.63,0,0,0-.77-.65,7.69,7.69,0,0,0-3.1-.26,6.89,6.89,0,0,0-1.53,0,5.12,5.12,0,0,0-1.68.69A7.11,7.11,0,0,0,58.39,37.17Z" transform="translate(-19.54 -13.23)"/><path class="cls-15" d="M85.73,36.29a8.89,8.89,0,0,0-2.49-1.78,7.74,7.74,0,0,0-1.7-.55,10.09,10.09,0,0,0-4.18.1c-.59.16-1.14.38-1.34.06a1.2,1.2,0,0,1,.14-1.1,1.63,1.63,0,0,1,.77-.65A7.83,7.83,0,0,1,80,32.1a7.33,7.33,0,0,1,1.53,0,4.88,4.88,0,0,1,1.68.69A7.07,7.07,0,0,1,85.73,36.29Z" transform="translate(-19.54 -13.23)"/><path class="cls-1" d="M134.89,179.13l-1.68-8.7.58-16.83c-.86-3.12-1.66-6.52-2.34-10.17-.73-3.92-1.23-7.61-1.56-11l-12.84-.3c.18,3.29.43,5.42.49,5.89v.07c1.14,9.25,1.69,14.91,1.91,16.72h0a2,2,0,0,0,.08.61,54.59,54.59,0,0,0,4.91,15.93h0l-.27,4.62a6.81,6.81,0,0,0-.89,2.11c-.48,2.23.67,14.25,1.54,15.19s2-2.41,2-2.41l.39-5.45,2.11,5.61.54,9.67c2.7,4.15,6.42-.6,6.42-.6l2.58-12.92S136.6,182.51,134.89,179.13Z" transform="translate(-19.54 -13.23)"/><path class="cls-2" d="M112.91,128.06c1.18,5.64,2.22,11.68,3,18.09.53,4.21.92,8.27,1.21,12.19a19.95,19.95,0,0,0,20.9-3.1,20.93,20.93,0,0,1-1.14-1.85,23,23,0,0,1-2.41-6.62c-.72-3.32-2.7-10.8-5.4-20.94a8.16,8.16,0,0,0-9.36-5.74A8,8,0,0,0,112.91,128.06Z" transform="translate(-19.54 -13.23)"/><path class="cls-2" d="M99.82,67.12c-4,2.64-1.29,13.32,1.41,23.19,3,10.87,7.49,26,14.22,44.21.47.54,3.11,3.51,6.32,3.2,3.86-.38,7.66-5.41,6.94-12.17a263.38,263.38,0,0,1-9.64-36.25c-1.56-8.28-2.73-16.82-9.45-20.92C107,66.76,102.52,65.35,99.82,67.12Z" transform="translate(-19.54 -13.23)"/><path class="cls-2" d="M49.17,78.62c-5.13.5-8.26,6.14-11.12,11.58a424.29,424.29,0,0,0-18.31,39.92c.23,1.8.86,4.09,2.64,5.19,3.88,2.41,11.55-1.43,14-4.83s19-26.13,23.8-37.29A9.56,9.56,0,0,0,61,87.42C60,82.42,54.06,78.14,49.17,78.62Z" transform="translate(-19.54 -13.23)"/><path class="cls-1" d="M67.13,70.29c-2.37,1.75-5,3.52-7.9,5.26a98.71,98.71,0,0,1-14.59,7.2c1,2.12,2.54,5.37,4.31,9.37,6.73,15.26,7.62,19.55,11.19,25.54,2.5,4.18,7.09,9.79,16.22,14.44a38.3,38.3,0,0,0,14.81-9.26c19.36-19.66,9.76-54.14,9.27-55.8a60.83,60.83,0,0,1-9.55,1.36c-4.51.29-6.71-.09-10.53,0A55.22,55.22,0,0,0,67.13,70.29Z" transform="translate(-19.54 -13.23)"/><path class="cls-2" d="M104.55,108.88c0-1.94.12-1.35.15-4.4A155,155,0,0,0,103.34,80a115.74,115.74,0,0,0-2.9-13.54l-5.27-.4a40.5,40.5,0,0,1-6.73,12.71,38.39,38.39,0,0,1-10.58,9.26,42,42,0,0,1-10.93-3.7A43.78,43.78,0,0,1,55.65,76.2a24.53,24.53,0,0,0-6.48,2.42c-.67.36-7.4,4.18-7.29,7.65,0,1.44,1,1.57,2.63,4.28,2,3.37,1.37,5,3.54,10a78.2,78.2,0,0,0,3.52,7.1c.77,1.37,1.46,2.63,4.88,8.29L59,120.16,60.13,122c1.06,1.74,2.76,20.48-.17,48a43.06,43.06,0,0,0,27.35,6.68c16.11-1.64,25.89-12.13,28.26-14.82-2.85-8.27-6.62-24.14-7.94-29.9C104.77,119.44,104.51,113,104.55,108.88Z" transform="translate(-19.54 -13.23)"/><path class="cls-16" d="M95.75,66.9,97.6,67l1.54.12-.89,2.55L97,73.21A59.07,59.07,0,0,1,88.42,85.8a56.86,56.86,0,0,1-10,8.84A69.3,69.3,0,0,1,68.05,91.1a71.24,71.24,0,0,1-11-5.93L53.8,81.86l-3.15-3.17a24,24,0,0,1,4.56-1.63,44.34,44.34,0,0,0,11.15,8A43.1,43.1,0,0,0,77.55,88.8h.18a1,1,0,0,0,.51-.13A39.1,39.1,0,0,0,89.1,79.17,41,41,0,0,0,95.75,66.9m-.7-1.06a40.25,40.25,0,0,1-6.74,12.71,37.77,37.77,0,0,1-10.58,9.26,41.78,41.78,0,0,1-10.93-3.7A43.66,43.66,0,0,1,55.52,76,25,25,0,0,0,49,78.38l.13.24L56.45,86A73.14,73.14,0,0,0,67.65,92a70.16,70.16,0,0,0,10.93,3.7,57.16,57.16,0,0,0,10.58-9.25A60.47,60.47,0,0,0,98,73.6c.82-2.37,1.65-4.75,2.48-7.12l-.13-.24-5.26-.4Z" transform="translate(-19.54 -13.23)"/><path class="cls-9" d="M66.52,70.6a47.56,47.56,0,0,0,3.2,5,6.75,6.75,0,0,0,2,2.07,3.07,3.07,0,0,0,1.37.41h.36l.34-.09a1.77,1.77,0,0,0,.66-.25,12.45,12.45,0,0,0,3.83-4.27c1.09-1.65,2.06-3.4,3.15-5.13l.1.05A21.59,21.59,0,0,1,79.23,74a14.07,14.07,0,0,1-1.89,2.47,6.41,6.41,0,0,1-2.64,1.75,2.59,2.59,0,0,1-.79.17l-.4,0-.4,0A4.78,4.78,0,0,1,71.62,78a9,9,0,0,1-2.54-1.82,11.53,11.53,0,0,1-2.66-5.52Z" transform="translate(-19.54 -13.23)"/><path class="cls-17" d="M49.45,143.27s-2.83,21.36-13.07,18.06a38.33,38.33,0,0,1-1.63-4.92,39.76,39.76,0,0,1-1.14-12.49Z" transform="translate(-19.54 -13.23)"/><path class="cls-1" d="M61,174.22c-3-5.82-6.08-8.62-8.4-10.1-2.73-1.74-5.67-1.72-9.65-5a40.19,40.19,0,0,1-3-2.83A39.59,39.59,0,0,1,34.82,150a10.56,10.56,0,0,0-.78-1.16c-.69-.87-1.34-1.32-2.55-2.79A31.67,31.67,0,0,1,26,135.83c-.82-1.87-2.87-6.87-1.41-8.36,1.81-1.84,8,2.67,10.38,4.55,7.53,5.92,12.17,12,16.37,17.54,3.61,4.77,9.11,11.93,16.21,20.83Z" transform="translate(-19.54 -13.23)"/><path class="cls-2" d="M35.37,127c-3.91-4.55-10.28-4.55-13.55-1.07-2.46,2.62-3,7.08-1.23,10.94,2.4,4,4.45,7.09,5.89,9.19,1.55,2.25,2,3.28,3.18,5.08,1.53,2.44,3.8,6,6.72,10.36A14.26,14.26,0,0,1,38.88,148a13.26,13.26,0,0,1,10.57-4.58Z" transform="translate(-19.54 -13.23)"/><path class="cls-1" d="M50.4,163.35c1.57,16.7,1.89,23.12,1.74,25.06,0,.25-.07.78,0,.84.57.35,2.53-1.48,2.61-8.73a7.22,7.22,0,0,1,.18-2.46c.09,0,1.55,12.23,2.9,14.3.09.14.38.59.72.54.58-.08,1.07-1.6,1-1.54s2.53,4.65,1.9-1.72-1-8.66-.48-10.08c0-.05.05-.12.1-.12.42,0,1,5.05,1.45,9.95.29.31,1.2,1.2,1.85,1s.7-1.37.75-2.16c.29-4.22-2.79-14.18-.66-16.08a1.17,1.17,0,0,1,.79-.34c1.25.05,1.35,2.91,3.46,5.12,1.27,1.34,3.22,2.37,3.78,1.9.75-.63-1-4-2.33-6.44a48,48,0,0,0-2.88-4.74,41.1,41.1,0,0,0-7.41-8.09c-2-1.67-2.77-2-3.54-2a5.82,5.82,0,0,0-5.53,3.35A5.73,5.73,0,0,0,50.4,163.35Z" transform="translate(-19.54 -13.23)"/><path class="cls-2" d="M140.94,113.26" transform="translate(-19.54 -13.23)"/></g></svg>