<svg xmlns="http://www.w3.org/2000/svg" viewBox="0 0 128.78 384.59"><defs><style>.cls-1{fill:#161513;}.cls-2{fill:#1c6d53;}.cls-3{fill:#fcd9c0;}.cls-4{fill:#2d3133;}.cls-5{fill:#124f39;}.cls-14,.cls-6{fill:none;stroke-miterlimit:10;}.cls-6{stroke:#124f39;}.cls-7{fill:#eac9b2;}.cls-8{fill:#f9dab9;}.cls-9{fill:#8c6239;}.cls-10{fill:#4f4035;}.cls-11{fill:#fff;}.cls-12{fill:#7c6859;}.cls-13{fill:#90afd1;}.cls-14{stroke:#57648c;}.cls-15{fill:#57648c;}.cls-16{fill:#d8eff6;}</style></defs><g id="left_lower_arm" data-name="left lower arm"><path class="cls-1" d="M29,12.53" transform="translate(-34.8 -8.43)"/><path class="cls-2" d="M60.44,166.94q-5.19,54.8-10.39,109.58C49.63,288,59.12,296.09,67.34,295c6.46-.83,12.38-7.33,13-15.78L93.61,152.62Z" transform="translate(-34.8 -8.43)"/><path class="cls-3" d="M59.34,343.19c3.09,12.41.81,19.29-1.87,23.28-3.39,5-14.17,15.55-20.27,22.59-.39.45-1.18,1.39-.92,2.21.76,2.32,9.58,2.41,17-.21,1.23-.44,4.13-2.05,9.86-5.26,9.61-5.38,10.48-6.14,11.36-7.39,2-2.85-.28-15.07-.28-15.07s-.08-4.59-.06-9.57c0-5.28.4-9.83.57-11.88.19-2.46.48-5.4.9-8.73Z" transform="translate(-34.8 -8.43)"/><path class="cls-4" d="M37.2,389.06c6.1-7,16.88-17.55,20.27-22.59a19.58,19.58,0,0,0,3-8.15h0l.23,3.4a65.43,65.43,0,0,0,7.83,1.37c1.87,0,5.63-5,5.63-5,0,3,.06,5.27.06,5.27s2.27,12.22.28,15.07c-.88,1.25-1.75,2-11.36,7.39-5.73,3.21-8.63,4.82-9.86,5.26-7.47,2.62-16.29,2.53-17,.21C36,390.45,36.81,389.51,37.2,389.06Z" transform="translate(-34.8 -8.43)"/><path class="cls-2" d="M50.05,276.52c-.58,11.63-.68,24.39,0,38.11a383.65,383.65,0,0,0,4.58,43.05,36.35,36.35,0,0,0,25-.52q.47-40.2.94-80.4a15.77,15.77,0,0,0-13.89-13.55C58.92,262.51,51.45,268.24,50.05,276.52Z" transform="translate(-34.8 -8.43)"/><path class="cls-5" d="M54.63,357.68c-.55-1.19-1.1-2.37-1.64-3.55a71.58,71.58,0,0,0,9.82,1.42,72.41,72.41,0,0,0,17.7-.85l.1,3.74S55.48,362.35,54.63,357.68Z" transform="translate(-34.8 -8.43)"/><path class="cls-2" d="M82.09,165,99.25,273.7c2.44,11.23,13.64,16.7,21.34,13.63,6.06-2.41,10.18-10.18,8.68-18.52q-9.32-63-18.62-125.95Z" transform="translate(-34.8 -8.43)"/><path class="cls-6" d="M88.71,196.57l1.59,4.51A3.21,3.21,0,0,0,94,199.61a8.76,8.76,0,0,0,1-4.17,81.3,81.3,0,0,0-.73-17.29" transform="translate(-34.8 -8.43)"/><path class="cls-3" d="M110.06,339.78c-3,13.77-.34,21.26,3,25.62s15,15.86,20.74,22.16c.4.45,1.22,1.37,1,2.2-.71,2.33-9.53,2.6-17,.14-1.24-.41-4.17-2-10-5-9.72-5.18-10.6-5.92-11.51-7.16-2-2.8,0-15.06,0-15.06s-.08-18.38-1-21.44-1.66-6.64-1.66-6.64Z" transform="translate(-34.8 -8.43)"/><polygon class="cls-4" points="75.24 349.98 75.23 349.98 75.24 349.99 75.24 349.98"/><path class="cls-4" d="M133.78,387.56c-6.25-6.91-17.24-17.19-20.74-22.16a18.76,18.76,0,0,1-2.65-5.64c.24,1.2.42,2.85-.33,3.41-1.22.92-4.85,1.49-6.21,1.58s-7.7-6.31-7.7-6.31c0,2.47,0,4.19,0,4.19s-2,12.26,0,15.06c.91,1.24,1.79,2,11.51,7.16,5.8,3.09,8.73,4.64,10,5,7.52,2.46,16.34,2.19,17-.14C135,388.93,134.18,388,133.78,387.56Z" transform="translate(-34.8 -8.43)"/><path class="cls-2" d="M99.25,273.7,90.89,350a108.32,108.32,0,0,0,24.52,6,201.56,201.56,0,0,0,9.87-32.24,202.18,202.18,0,0,0,4.3-52.43c-1.29-7.33-7-12.8-13.47-13.44C108,257.15,99.79,264,99.25,273.7Z" transform="translate(-34.8 -8.43)"/><path class="cls-5" d="M90.89,347.38l-1.19,2.39s18,8.14,26.9,6.28l1.17-3.11q-3.15-.29-6.47-.77A122.45,122.45,0,0,1,90.89,347.38Z" transform="translate(-34.8 -8.43)"/><ellipse class="cls-7" cx="71.84" cy="40.24" rx="6.41" ry="8.23" transform="translate(-40.85 5.1) rotate(-10.33)"/><ellipse class="cls-8" cx="104.47" cy="43.74" rx="8.23" ry="6.41" transform="translate(-20.45 103.92) rotate(-60)"/><rect class="cls-8" x="45.13" y="43.69" width="15.03" height="28.99"/><path class="cls-7" d="M95,53.49v8.72c-4.33,1.91-11.33.65-15-.24V58.26l5-6.14,1-1.25,4.3,1.25Z" transform="translate(-34.8 -8.43)"/><path class="cls-8" d="M107.31,21.84c-3.07-5.6-8.81-7.23-10.55-7.72-.33-.09-.73-.2-1.19-.3s-.83-.28-1.16-.37c-1.74-.5-7.47-2.15-13,1C75.23,17.9,73.27,25,71.6,31c-1.56,5.65-3.66,13.22,0,20.46.58,1.15,3.43,6.82,9.19,8.58a11.45,11.45,0,0,0,1.52.33,11.3,11.3,0,0,0,1.48.52c5.81,1.55,11.23-1.76,12.32-2.43,6.91-4.23,9.13-11.77,10.78-17.39C108.63,35.08,110.7,28,107.31,21.84Z" transform="translate(-34.8 -8.43)"/><path class="cls-9" d="M71.82,19.82s-2.64,12.59-1.4,15.78a9.63,9.63,0,0,1,1.41-5.41,10,10,0,0,1,.77-1,24.41,24.41,0,0,0,3.55-6.72c.93-2.33,2.32-7.15,2.32-7.15h0" transform="translate(-34.8 -8.43)"/><path class="cls-7" d="M106.48,38.81a4,4,0,0,1,1.63,2.38,4.42,4.42,0,0,1-.27,3,4.66,4.66,0,0,1-2.06,2.19c-.87.46-1.78.57-2.35,1.35a2.1,2.1,0,0,1,.8-1.21c.38-.31.79-.55,1.14-.81a4.86,4.86,0,0,0,1.56-1.93A5.19,5.19,0,0,0,106.48,38.81Z" transform="translate(-34.8 -8.43)"/><path class="cls-9" d="M103.24,43.83s.43-11.83-6.91-15.41-22.15.31-25-3.61-5.94-5-4.23-7.86,3.69-6.46,6.19-7.17,6.48.35,11.66,0c3.2-.23,5.09-1.54,7.55-1.33,2.67.22,4.55,1.89,5.69,2.76a17.57,17.57,0,0,1,4.64,5.35,10.6,10.6,0,0,1,6.08,2.54c5.18,4.7,2.56,13.51,2.19,14.69A19.12,19.12,0,0,1,103.24,43.83Z" transform="translate(-34.8 -8.43)"/><path d="M76.61,38.93a.87.87,0,0,1,1.33,0,3.5,3.5,0,0,0,.28-2c-.12-1.22-.7-2.12-1.28-2s-1,1.22-.83,2.45A3.41,3.41,0,0,0,76.61,38.93Z" transform="translate(-34.8 -8.43)"/><path d="M93.32,39.1a1.74,1.74,0,0,1,.82.19,3.73,3.73,0,0,0,.37-1.42c.09-1.23-.31-2.3-.89-2.39s-1.14.83-1.23,2.06a3.82,3.82,0,0,0,.22,1.69A2,2,0,0,1,93.32,39.1Z" transform="translate(-34.8 -8.43)"/><path class="cls-10" d="M83.64,35.87a8.4,8.4,0,0,1,.3,3.7,10.66,10.66,0,0,1-1.28,3.54c-.16.27-.33.54-.51.8a5.11,5.11,0,0,1-.61.75l-.3.33a1.5,1.5,0,0,0-.15.19c0-.08-.08-.15,0-.09a1,1,0,0,0,.3.12,24.8,24.8,0,0,0,3.55.28,10.35,10.35,0,0,1-3.71.49,1.72,1.72,0,0,1-.56-.16.93.93,0,0,1-.32-.29.74.74,0,0,1-.1-.54,1.39,1.39,0,0,1,.31-.58l.29-.37a6.34,6.34,0,0,0,.51-.68c.16-.24.3-.49.44-.74a14.82,14.82,0,0,0,1.4-3.2A15.83,15.83,0,0,0,83.64,35.87Z" transform="translate(-34.8 -8.43)"/><path class="cls-11" d="M90.6,49.52a7.24,7.24,0,0,1-2.48,3.74,6.71,6.71,0,0,1-3.64,1.44,6.86,6.86,0,0,1-3.93-1,7.75,7.75,0,0,1-3.14-3.37,15.07,15.07,0,0,0,9.27.79A14.08,14.08,0,0,0,90.6,49.52Z" transform="translate(-34.8 -8.43)"/><path class="cls-12" d="M72.25,33.65a10.24,10.24,0,0,1,4.61-2.28c2.46-.43,3.68-.6,4-.61A2.84,2.84,0,0,0,82,30.57a1.23,1.23,0,0,0,.7-.94,1.24,1.24,0,0,0-.73-1.17,2.1,2.1,0,0,0-1.33-.16c-2,.41-5.24,1.4-5.45,1.47a4,4,0,0,0-2.07,1.55A4.89,4.89,0,0,0,72.25,33.65Z" transform="translate(-34.8 -8.43)"/><path class="cls-12" d="M100.81,33.78a13.27,13.27,0,0,0-5.17-1.85l-4-.43a2.89,2.89,0,0,1-1.13-.15,1.17,1.17,0,0,1-.73-.9,1.24,1.24,0,0,1,.68-1.2A2.19,2.19,0,0,1,91.8,29c3,.47,4.54.71,5.49,1.22a7.58,7.58,0,0,1,3.52,3.54Z" transform="translate(-34.8 -8.43)"/><path class="cls-8" d="M70.47,75c-1.19,2.4.34,4.8,1.36,8.17,2,6.41-.86,10.44,0,16a107.38,107.38,0,0,0,6.47,23.49,14.91,14.91,0,0,1,2.38-7.83c3.93-6,10.92-6.72,11.91-6.81a20.48,20.48,0,0,0,14.3-4.09c6.53-5.19,8.63-14.1,6.47-21.44A21.18,21.18,0,0,0,102.72,70c-6-3-11.8-2.31-15.57-1.81-3.15.41-5.28,1.18-9.53,2.72C71.69,73,70.84,74.21,70.47,75Z" transform="translate(-34.8 -8.43)"/><path class="cls-13" d="M117.55,72.9c-1.71-1.51-5-2.67-6.63-3.25A30.3,30.3,0,0,0,99.2,67.94c-3.7,6.91-8.88,15.47-11.76,15.21-3.27-.3-8.36-7.25-11.29-11.66A36.42,36.42,0,0,0,66,73.93a40.7,40.7,0,0,0-7.16,3.72c.69,16.14.88,33.56.33,52.1-.54,17.89-1.7,34.68-3.26,50.25a74.35,74.35,0,0,0,34.6,9.83,72.94,72.94,0,0,0,29.78-5.53c-6.15-24.63-5.88-44.23-4.25-58.14C117.78,111.73,123.5,78.15,117.55,72.9Z" transform="translate(-34.8 -8.43)"/><path class="cls-14" d="M76.15,71.49A27.73,27.73,0,0,0,87.44,83.15s5.76-1.3,11.76-15.21" transform="translate(-34.8 -8.43)"/><path class="cls-8" d="M112,72.39A186.5,186.5,0,0,1,143.56,91a174.8,174.8,0,0,1,16.8,14.07,5.94,5.94,0,0,1,1.33,1.27h0a7.05,7.05,0,0,1,.46.7c1.81,3.3,0,7.77-4,10a8.4,8.4,0,0,1-8.9-.11c-7-5.11-14.68-7.61-23.22-16-3.67-3.62-8.53-8.64-13.92-15Q112,79.16,112,72.39Z" transform="translate(-34.8 -8.43)"/><path class="cls-13" d="M103.92,68.65a59.39,59.39,0,0,1,14.5,4.2,58.75,58.75,0,0,1,12.37,7.26s-1.28,19.72-5.37,21.76L107.63,90Z" transform="translate(-34.8 -8.43)"/><path class="cls-15" d="M119.52,97.94a14.08,14.08,0,0,1-4.16-2A12.7,12.7,0,0,1,112,92.7a36.8,36.8,0,0,1,3.89,2.4A29.05,29.05,0,0,1,119.52,97.94Z" transform="translate(-34.8 -8.43)"/><path class="cls-8" d="M135.09,146.78A84.53,84.53,0,0,0,161.87,116a7.42,7.42,0,0,0,1-1.68h0c.12-.28.23-.56.33-.86a7.48,7.48,0,0,0-13-6.86c-7.36,9.32-14.94,16.14-19.11,23-3.31,5.43-8.12,12.93-14.6,21.69Z" transform="translate(-34.8 -8.43)"/><path class="cls-8" d="M109.39,159.51l5.11-5.42,10-13.64,7-1,3.65,7.32c-.14.69-12.38,11.36-12.38,11.36l-1.91,4a6.52,6.52,0,0,1-.17,2.2c-.61,2.1-7.31,11.57-8.56,11.93s-.74-3-.74-3l2.19-4.74-4.58,3.65-5,7.81c-4.45,2.13-5.66-3.66-5.66-3.66l3.67-12.06S106.21,161.49,109.39,159.51Z" transform="translate(-34.8 -8.43)"/><path class="cls-8" d="M46.82,94.36s-10,46.81-10.18,50.88,3.12,13.13,12.28,6.9S61.78,92.7,61.78,92.7Z" transform="translate(-34.8 -8.43)"/><path class="cls-13" d="M72.25,73.14c-2.71.33-14.52,2-22.29,12.29a30.66,30.66,0,0,0-5.59,12.44s8.82,9.91,18.41,9l6.86-22.65Z" transform="translate(-34.8 -8.43)"/><path class="cls-15" d="M60.46,106.92A60.43,60.43,0,0,1,66.55,92.7,52.79,52.79,0,0,1,64,100,54.69,54.69,0,0,1,60.46,106.92Z" transform="translate(-34.8 -8.43)"/><rect class="cls-16" x="40.65" y="93.34" width="25.98" height="9.23"/><path class="cls-8" d="M36.05,145.24,36.5,176q5.07,7.31,10.15,14.59l5.89-46.35c-.62-4-3.56-7-7-7.49C41.2,136.11,36.47,139.79,36.05,145.24Z" transform="translate(-34.8 -8.43)"/><path class="cls-8" d="M37.41,200.25l.37-7.43L36.5,176l4.66-5.28,7.54,3.2c.34.62-2.05,16.67-2.05,16.67l1.14,4.28a6.23,6.23,0,0,1,1.3,1.79c.9,2,2,13.54,1.24,14.62s-2.53-1.81-2.53-1.81l-1.4-5-1.13,5.75,1.25,9.21c-2,4.51-6.68.89-6.68.89l-5-11.56S36.28,203.82,37.41,200.25Z" transform="translate(-34.8 -8.43)"/></g></svg>